<?xml version="1.0" standalone="no"?>
<!DOCTYPE svg PUBLIC "-//W3C//DTD SVG 20010904//EN"
 "http://www.w3.org/TR/2001/REC-SVG-20010904/DTD/svg10.dtd">
<svg version="1.0" xmlns="http://www.w3.org/2000/svg"
 width="300.000000pt" height="169.000000pt" viewBox="0 0 300.000000 169.000000"
 preserveAspectRatio="xMidYMid meet">
<metadata>
Created by potrace 1.10, written by Peter Selinger 2001-2011
</metadata>
<g transform="translate(0.000000,169.000000) scale(0.050000,-0.050000)"
fill="#000000" stroke="none">
<path d="M9 1690 c0 -935 3 -1392 6 -1016 l6 684 82 -29 c234 -83 267 -45 327
374 79 549 168 1087 221 1333 11 50 -258 354 -294 332 -9 -6 -17 -62 -17 -124
0 -63 -37 -303 -81 -534 -45 -231 -88 -465 -96 -520 -9 -55 -42 -239 -74 -408
l-59 -308 -10 958 c-8 728 -11 549 -11 -742z m537 1374 c35 -38 35 -48 6 -167
-17 -70 -59 -311 -92 -537 -33 -225 -74 -491 -91 -590 -17 -99 -37 -220 -45
-269 -19 -121 -157 -175 -238 -93 -5 4 18 146 52 315 110 552 242 1296 242
1364 0 107 56 100 166 -23z"/>
<path d="M1130 3229 c22 -145 28 -157 129 -255 l106 -104 -13 110 c-8 61 -19
175 -26 255 -17 209 -66 204 -66 -7 0 -194 -49 -178 -71 23 -11 104 -20 129
-48 129 -32 0 -33 -12 -11 -151z"/>
<path d="M1400 3265 c8 -93 26 -138 95 -239 120 -175 134 -178 118 -26 -7 69
-13 183 -13 253 0 112 -4 127 -39 127 -32 0 -37 -11 -30 -70 5 -38 13 -101 18
-140 5 -39 0 -70 -11 -70 -30 0 -78 129 -78 209 0 54 -8 71 -35 71 -30 0 -34
-15 -25 -115z"/>
<path d="M1905 3365 c74 -4 196 -4 270 0 74 4 14 7 -135 7 -148 0 -209 -3
-135 -7z"/>
<path d="M2423 3355 c17 -14 42 -54 56 -89 39 -100 110 -105 124 -7 10 71 178
125 233 74 21 -18 69 -33 107 -33 127 0 195 -142 82 -170 -75 -19 -185 -152
-226 -273 l-34 -101 -33 47 c-17 25 -32 66 -32 91 0 26 -9 46 -20 46 -35 0
-22 -167 17 -226 36 -55 36 -57 -10 -148 -26 -51 -47 -104 -47 -119 0 -17 -30
-25 -95 -24 -52 0 -113 -2 -135 -6 -29 -5 -48 11 -70 58 -38 82 -87 83 -163 2
-39 -42 -81 -65 -123 -68 -35 -2 -82 -8 -104 -13 -22 -6 -67 7 -100 27 -78 48
-135 47 -180 -3 -24 -27 -62 -40 -113 -40 -85 0 -106 -48 -47 -107 17 -17 30
-40 30 -52 0 -11 14 -21 30 -21 17 0 30 9 30 20 0 11 13 20 28 20 16 0 32 9
35 20 15 45 110 39 177 -10 37 -28 77 -50 89 -50 11 0 8 9 -9 20 -32 20 -10
80 35 95 19 6 58 -72 47 -92 -3 -5 44 -32 103 -62 114 -58 248 -62 269 -9 11
31 66 39 66 10 0 -10 -11 -23 -25 -29 -15 -6 -11 -10 10 -11 19 -1 35 -9 35
-18 0 -8 28 -32 61 -52 54 -31 58 -40 34 -69 -31 -38 -75 -135 -75 -166 0 -12
32 7 71 41 96 84 102 81 114 -64 5 -69 27 -157 47 -195 l38 -69 6 84 6 85 59
-67 c33 -37 59 -81 59 -98 0 -18 8 -36 17 -42 10 -6 15 -38 11 -71 -4 -32 2
-65 12 -71 63 -39 12 -112 -80 -114 -82 -3 -75 -26 21 -69 66 -29 79 -43 69
-76 -29 -97 -33 -203 -6 -164 54 78 96 123 85 90 -6 -18 3 -66 20 -107 48
-116 40 -139 -67 -197 -54 -29 -126 -79 -160 -111 -34 -32 -75 -63 -92 -69
-28 -11 -591 211 -1346 531 -157 66 -290 117 -295 112 -5 -5 11 -96 35 -201
l44 -193 391 -141 c215 -77 454 -162 531 -189 l140 -47 -60 -25 c-61 -24 -183
-36 -402 -39 -159 -1 -233 -51 -323 -216 l-69 -125 197 3 c108 1 176 6 150 11
-90 17 -13 211 91 232 31 6 64 3 74 -6 22 -22 131 -3 172 29 123 94 217 106
370 47 l114 -43 -135 -122 -136 -121 -252 -11 -251 -11 273 -4 274 -4 125 130
c134 140 133 140 281 77 130 -56 49 -177 -125 -184 -172 -8 -140 -23 50 -23
186 0 232 19 232 97 0 65 72 69 158 10 4 -3 -8 -31 -26 -61 l-34 -56 47 55
c58 68 75 69 75 5 l0 -50 284 0 284 0 -83 61 c-82 60 -82 62 -96 221 -10 107
-24 165 -42 172 -47 18 -29 46 29 46 169 0 698 223 719 303 18 70 55 26 69
-85 13 -99 9 -115 -44 -188 -33 -44 -110 -165 -173 -270 -63 -104 -128 -206
-144 -225 -27 -33 -18 -35 159 -32 103 2 159 7 123 11 -41 6 -65 20 -65 39 0
44 105 186 137 187 16 0 23 12 15 31 -15 41 65 149 111 149 143 0 199 -92 159
-265 -11 -44 -10 -80 0 -86 10 -6 19 0 19 15 9 153 114 284 151 188 6 -16 27
-23 49 -17 22 5 39 0 39 -14 0 -13 9 -18 20 -11 11 7 20 -4 20 -24 1 -28 5
-30 18 -9 30 48 99 5 157 -98 51 -91 61 -99 130 -99 l76 0 -51 80 c-67 106
-73 89 125 334 96 119 206 261 244 316 38 55 143 200 234 322 211 284 251 354
243 421 -6 52 -9 49 -69 -48 -76 -122 -481 -670 -665 -900 -146 -182 -142
-181 -347 -127 -80 21 -178 44 -219 51 -40 7 -99 34 -130 61 -31 26 -78 65
-104 86 l-49 38 36 88 c20 48 42 133 49 188 l13 100 54 -110 54 -110 0 80 c0
44 -16 125 -35 180 l-35 100 88 -7 c49 -4 83 1 77 11 -11 17 187 47 629 93
l214 23 142 138 c78 75 139 141 134 146 -5 4 -240 8 -522 7 l-514 -2 14 46
c23 76 44 82 76 22 53 -101 73 51 23 178 -12 28 11 46 118 94 73 33 132 69
132 80 0 26 -13 26 -61 1 -27 -15 -58 -13 -109 9 l-70 29 0 148 c0 82 -13 188
-30 236 l-30 88 50 -56 50 -56 0 49 c0 27 -31 95 -69 151 l-69 103 77 49 c43
26 83 58 90 69 8 12 22 21 33 21 11 0 16 -7 11 -16 -6 -8 34 -15 89 -15 54 1
98 -8 99 -19 0 -11 11 -6 25 12 13 17 52 46 87 64 34 18 68 47 74 65 7 17 22
26 33 19 11 -7 20 0 20 16 0 16 31 62 70 103 38 40 76 98 83 127 7 30 30 73
51 97 31 34 34 46 13 60 -17 10 42 21 153 28 130 8 82 11 -170 12 -192 0 -304
-4 -247 -8 147 -10 172 -225 26 -225 -22 0 -46 -16 -53 -35 -7 -19 -37 -63
-67 -98 -30 -35 -58 -75 -63 -90 -7 -21 -64 -27 -238 -27 -223 0 -278 -11
-278 -54 0 -14 36 -17 105 -9 102 11 103 10 45 -17 -71 -33 -150 -38 -150 -10
0 11 -17 20 -39 20 -21 0 -57 25 -81 55 -24 30 -90 79 -147 109 -116 61 -100
71 38 25 134 -46 155 -23 35 38 -104 53 -163 71 -106 32 21 -14 -15 -17 -120
-9 l-150 11 126 -46 c69 -25 175 -83 235 -130 106 -82 143 -137 76 -111 -21 8
-29 5 -20 -9 21 -34 162 -50 244 -27 98 27 65 -10 -43 -49 -43 -15 -63 -28
-45 -28 35 -1 157 -128 157 -163 0 -12 -24 -2 -53 21 -79 62 -93 50 -39 -34
66 -101 98 -234 82 -339 -17 -118 0 -160 86 -205 48 -25 61 -40 38 -40 -20 -1
-50 -14 -67 -31 -16 -17 -47 -30 -67 -30 -33 0 -34 -5 -11 -55 15 -30 32 -82
39 -115 l13 -60 -40 50 c-22 28 -40 56 -41 63 0 7 -15 18 -33 25 -26 10 -28 7
-10 -15 55 -65 -16 -182 -115 -189 l-88 -7 12 71 c6 39 3 76 -7 83 -11 6 -19
-24 -19 -68 l0 -79 -113 4 c-111 3 -173 54 -137 112 16 26 -31 47 -53 25 -13
-13 -10 -29 8 -47 39 -40 56 -95 34 -109 -10 -6 -19 -33 -19 -60 0 -187 -227
-489 -477 -636 -342 -200 -395 -188 -613 142 -210 318 -235 387 -240 675 -2
132 -10 254 -18 271 -7 17 1 64 17 104 17 41 30 99 29 129 -1 60 -7 51 -28
-44 -7 -33 -54 -98 -107 -147 -51 -49 -77 -83 -58 -76 31 10 35 -3 34 -123 0
-122 -3 -131 -30 -95 -16 21 -29 70 -29 108 0 106 -28 55 -41 -74 l-11 -113
-26 90 c-20 66 -22 116 -8 185 22 108 12 114 -87 53 -84 -52 -86 -29 -3 56 64
66 64 66 15 66 -59 1 -81 14 -125 79 -50 73 -42 81 39 40 85 -44 170 -21 126
33 -57 68 58 428 136 428 16 0 1 23 -33 52 -34 28 -62 61 -62 72 0 11 28 -4
62 -32 62 -53 129 -75 82 -28 -37 37 -28 158 16 231 42 70 75 91 41 26 -12
-21 -20 -82 -19 -135 2 -85 4 -89 18 -36 12 49 16 51 18 15 1 -25 12 -45 24
-45 12 0 17 13 11 29 -47 123 118 290 356 359 426 124 503 117 211 -19 -232
-109 -273 -133 -370 -221 -98 -89 -93 -97 30 -51 17 6 -18 -36 -77 -94 -130
-127 -129 -128 47 -82 204 53 470 53 470 -1 0 -35 -14 -40 -115 -41 -150 -1
-432 -51 -442 -79 -18 -54 -112 -140 -210 -191 -98 -52 -107 -62 -91 -103 9
-25 12 -46 7 -46 -6 0 -1 -18 11 -40 12 -22 13 -40 3 -40 -10 0 -18 -22 -18
-49 0 -40 6 -46 33 -32 32 18 114 107 106 116 -14 17 -1 45 16 35 11 -7 20 6
20 28 0 24 22 50 55 66 30 15 52 34 49 43 -11 28 134 128 206 142 38 7 70 22
70 33 0 13 13 13 37 0 26 -14 45 -13 63 4 21 19 23 17 13 -12 -7 -20 -5 -32 4
-26 32 20 91 -77 89 -148 -1 -63 4 -58 50 60 39 98 52 168 53 285 1 178 0 175
42 93 41 -80 41 -210 0 -308 -17 -42 -28 -79 -24 -83 13 -14 159 239 185 321
l25 82 2 -116 c1 -147 -28 -203 -172 -325 -63 -55 -108 -85 -98 -69 12 21 6
20 -20 -5 -35 -33 -38 -32 -73 20 -28 43 -36 47 -36 19 0 -20 -9 -31 -20 -24
-11 7 -20 39 -20 71 0 33 -7 59 -15 59 -8 0 -16 -61 -16 -135 -2 -140 -40
-313 -66 -297 -8 5 -16 -10 -18 -34 -3 -43 -2 -43 27 -4 28 38 88 214 88 260
0 14 38 22 100 21 l100 -1 1 -70 c0 -38 14 -97 30 -130 24 -50 27 -51 17 -10
-42 164 -34 238 33 301 35 33 69 55 75 49 6 -6 36 13 66 42 40 38 66 49 92 37
20 -8 44 -14 53 -11 9 2 32 -14 50 -34 18 -21 44 -34 58 -29 14 4 25 -2 25
-15 0 -14 13 -19 28 -13 16 6 34 -3 40 -20 7 -16 21 -24 32 -17 11 7 20 3 20
-9 0 -12 23 -31 50 -41 28 -10 50 -28 50 -40 0 -11 13 -20 28 -20 16 0 56 -23
89 -50 33 -28 100 -69 150 -91 98 -43 124 -87 96 -161 -20 -55 -7 -198 18
-198 9 0 20 -16 25 -35 5 -19 10 9 12 62 2 84 7 95 37 84 28 -11 30 -8 10 12
-33 33 -32 57 4 57 15 0 53 9 83 21 l55 21 -46 31 c-25 18 -58 62 -73 98 -19
47 -44 69 -87 79 -61 13 -266 138 -369 224 -66 55 -296 174 -372 192 -75 18
-122 60 -103 90 17 27 226 -54 426 -165 51 -28 158 -74 238 -101 80 -28 167
-64 192 -80 62 -41 67 -39 67 26 0 87 -96 259 -177 318 -117 86 -118 89 -23
75 86 -12 83 -9 -70 62 -88 40 -174 75 -192 76 -17 1 -31 14 -31 29 0 29 90
26 183 -6 29 -9 23 1 -19 38 -77 65 -262 134 -407 151 -89 10 -104 16 -69 28
77 27 50 53 -54 53 -96 0 -174 -72 -104 -96 13 -4 19 -14 14 -23 -6 -8 12 -11
40 -6 28 6 49 0 49 -13 0 -12 22 -22 49 -22 27 0 54 -9 60 -19 7 -10 60 -16
118 -12 l106 7 -2 -67 c-2 -66 15 -91 101 -142 21 -13 36 -33 33 -45 -3 -12 5
-22 17 -22 39 0 142 -125 117 -141 -36 -22 -165 15 -194 55 -15 20 -31 33 -36
29 -30 -20 -136 30 -188 89 -34 38 -61 60 -61 48 0 -22 -85 -63 -145 -69 -25
-3 -40 16 -53 67 -50 201 -50 201 -61 72 -7 -72 -18 -110 -27 -95 -9 14 -32
25 -51 25 -20 0 -59 41 -94 100 -56 94 -108 138 -81 68 44 -115 29 -167 -28
-98 -13 16 -30 26 -37 22 -29 -18 -88 47 -74 81 11 31 16 32 32 6 12 -19 18
-21 19 -4 0 29 71 105 98 105 10 0 23 14 29 30 10 27 4 27 -61 0 -111 -47
-101 -21 21 48 137 79 254 101 439 82 81 -8 178 -10 216 -5 76 10 34 -39 -52
-60 -22 -6 10 -11 70 -11 62 -1 95 5 74 13 -32 13 -29 20 23 70 49 47 66 53
100 35 62 -33 94 -28 239 43 74 35 179 70 234 77 58 7 -31 13 -210 13 -170 1
-289 -5 -264 -12 43 -12 44 -15 14 -53 -23 -29 -36 -33 -43 -15 -7 18 -29 10
-73 -27 -82 -69 -311 -25 -264 51 4 8 -4 14 -20 14 -20 0 -23 -9 -10 -33 12
-22 10 -34 -6 -35 -13 -2 -76 -9 -139 -17 -121 -14 -136 -4 -82 56 49 53 15
70 -39 20 -67 -63 -156 -90 -221 -65 -29 11 -53 13 -53 6 0 -8 -8 -3 -18 12
-14 22 -27 21 -78 -5 -67 -35 -124 -42 -124 -15 0 9 -27 16 -60 16 -33 0 -79
18 -102 39 -42 38 -40 38 215 49 182 8 81 12 -342 15 -481 3 -593 -1 -568 -21z
m554 -375 c-24 -33 -47 -56 -51 -52 -16 16 42 112 68 112 19 0 14 -17 -17 -60z
m823 -309 c0 -42 -41 -61 -62 -29 -27 43 -21 58 22 58 22 0 40 -13 40 -29z
m-1432 -389 c31 -34 31 -40 2 -70 -44 -43 -226 -45 -243 -1 -35 90 169 151
241 71z m169 18 c8 0 16 -22 18 -50 5 -59 -8 -62 -58 -17 -46 41 -50 96 -5 79
17 -7 38 -12 45 -12z m366 -523 c-29 -46 -30 -124 -2 -106 11 7 15 30 8 51 -7
23 -2 38 12 38 16 0 19 -19 11 -55 -17 -67 -17 -79 -2 -155 9 -45 4 -41 -19
20 -17 44 -31 85 -31 90 0 6 -10 -3 -22 -20 -16 -23 -18 -19 -7 17 7 26 13 98
12 160 l-1 113 32 -59 c24 -45 26 -67 9 -94z m2745 -302 c-43 -95 -139 -134
-410 -164 -148 -17 -367 -44 -488 -60 -121 -17 -254 -30 -295 -31 l-75 0 0
129 0 130 225 6 c654 19 1054 15 1043 -10z m-1354 -257 l-11 -81 117 6 c116 7
118 6 149 -59 47 -98 40 -148 -11 -79 -59 79 -68 70 -70 -70 -2 -85 -16 -150
-44 -203 l-42 -78 -24 53 c-14 29 -41 53 -61 53 -24 0 -37 15 -37 41 0 22 -13
45 -30 52 -41 15 -37 67 10 127 62 80 46 96 -20 19 l-59 -69 29 74 c17 41 30
96 30 122 0 67 40 174 65 174 12 0 16 -32 9 -82z m-1195 -247 c1 -95 -4 -114
-24 -94 -14 14 -24 69 -24 124 2 105 -9 106 -96 9 -35 -39 -35 -37 -5 40 18
44 41 89 51 99 35 35 20 42 -66 34 -93 -8 -92 2 8 56 l67 36 44 -93 c29 -61
44 -132 45 -211z m-1099 -266 c402 -165 857 -351 1013 -414 186 -75 302 -135
339 -173 72 -75 46 -73 -167 11 -151 60 -1557 575 -1862 683 -110 38 -124 56
-152 185 l-15 66 57 -29 c31 -16 386 -164 787 -329z m1218 228 c33 -58 78
-122 100 -141 21 -19 59 -84 83 -145 l45 -109 -43 -30 c-40 -28 -64 -83 -25
-59 21 13 73 -45 56 -62 -7 -6 -27 3 -44 21 -18 17 -41 32 -51 32 -9 0 -23 29
-30 65 -8 39 -42 89 -85 125 -68 57 -70 58 -44 10 14 -28 43 -62 63 -76 37
-26 54 -77 18 -55 -11 7 -34 -17 -53 -52 -57 -111 -80 -125 -154 -96 -95 38
-95 34 -24 249 63 188 68 197 88 145 45 -116 47 -57 11 231 -13 98 11 83 89
-53z m905 12 c-11 -19 -43 -61 -72 -92 -71 -77 -49 -91 38 -25 67 51 71 52 71
13 0 -30 -36 -58 -140 -111 -77 -39 -140 -66 -140 -61 0 25 78 129 160 215
100 105 110 112 83 61z m-272 -244 c-34 -65 -74 -87 -241 -130 -62 -16 -103
-19 -107 -7 -13 34 26 56 112 64 81 8 198 72 232 127 32 54 36 8 4 -54z
m-2191 -468 c0 -5 -13 -45 -29 -91 -16 -45 -30 -89 -30 -97 0 -8 -32 -18 -71
-21 -95 -9 -93 38 8 138 65 66 122 99 122 71z"/>
<path d="M4389 990 c-5 -16 -14 -45 -19 -63 -15 -45 11 -169 31 -156 28 17 59
153 46 203 -13 52 -44 61 -58 16z"/>
<path d="M4025 3365 c52 -4 138 -4 190 0 52 4 10 8 -95 8 -104 0 -147 -4 -95
-8z"/>
<path d="M5046 3358 c24 -14 70 -15 140 -2 l104 19 -140 2 c-106 1 -131 -3
-104 -19z"/>
<path d="M866 3255 c-10 -14 -39 -72 -65 -128 l-46 -104 70 -126 c38 -70 135
-275 215 -457 80 -181 177 -397 215 -480 39 -82 101 -222 139 -310 75 -174
249 -556 258 -567 3 -4 55 23 117 60 136 81 183 -56 -382 1113 -257 531 -467
974 -467 984 0 31 -35 41 -54 15z m186 -442 c72 -142 183 -377 248 -523 116
-262 347 -729 454 -917 l55 -96 -50 -38 c-85 -66 -49 -127 -448 767 -158 354
-328 733 -379 841 -75 162 -88 204 -70 238 28 51 23 57 190 -272z"/>
<path d="M3131 2275 c-8 -41 -10 -105 -3 -143 10 -53 6 -70 -23 -81 -28 -11
-30 -8 -10 12 14 14 25 34 25 46 0 12 -32 -13 -70 -55 -86 -94 -86 -95 0 -69
60 19 74 17 97 -14 22 -30 25 -9 18 142 -10 228 -15 254 -34 162z"/>
<path d="M798 2270 c-40 -22 -70 -24 -125 -8 -133 36 -138 -27 -9 -94 54 -28
62 -73 10 -60 -13 3 -17 2 -8 -3 9 -5 5 -22 -8 -37 -16 -20 -17 -28 0 -28 12
0 22 8 22 18 0 10 24 24 54 31 42 11 48 18 25 32 -21 14 -14 17 26 14 30 -2
55 -12 55 -23 0 -10 6 -13 13 -5 8 7 33 2 55 -13 23 -14 72 -28 109 -31 85 -8
78 34 -13 77 -35 17 -63 45 -64 63 -1 97 -47 119 -142 67z"/>
<path d="M3249 2170 c-41 -98 -69 -255 -50 -280 65 -86 -43 -84 -184 3 -22 14
23 -66 65 -115 17 -19 42 -50 57 -68 15 -18 40 -28 57 -21 16 6 48 11 71 11
41 0 41 1 5 27 -36 27 -36 28 3 25 22 -1 56 -18 75 -37 19 -19 44 -35 55 -35
27 0 2 -231 -33 -304 -39 -81 40 -153 129 -116 70 29 76 47 24 84 -81 58 -141
316 -72 316 2 0 125 -60 272 -132 240 -119 473 -228 487 -228 3 0 -2 33 -11
73 -19 86 -40 102 -159 119 -49 7 -121 26 -160 42 -38 16 -126 47 -195 68 -69
22 -125 51 -125 65 0 17 -20 23 -58 18 -67 -10 -99 46 -63 113 29 53 26 71 -5
45 -20 -16 -45 -9 -100 28 -110 75 -123 112 -80 235 l36 104 10 -100 c7 -72
14 -90 25 -62 18 43 -1 167 -28 184 -10 6 -32 -22 -48 -62z m-79 -370 c22 -9
28 -18 13 -19 -23 -1 -23 -7 -3 -31 34 -40 2 -38 -43 3 -64 57 -46 81 33 47z"/>
<path d="M3888 2129 c7 -62 27 -145 44 -185 18 -41 33 -84 36 -96 4 -25 62
-88 81 -88 7 0 -4 24 -23 54 -35 52 -35 54 1 40 20 -8 40 -14 45 -14 4 0 8
-24 8 -53 0 -49 -4 -52 -75 -40 -41 7 -106 13 -145 13 l-70 1 50 39 c28 22 62
39 77 40 15 0 -3 34 -42 80 -38 44 -80 118 -95 165 -49 157 -100 109 -72 -67
9 -58 6 -77 -10 -67 -12 8 -6 -10 13 -39 44 -69 51 -60 28 39 -33 145 -24 191
22 101 21 -43 53 -94 70 -113 29 -32 24 -39 -79 -87 -176 -84 -220 -74 -205
43 8 66 6 85 -7 62 -28 -46 -43 -181 -19 -166 10 6 19 -3 19 -20 0 -18 23 -42
51 -55 34 -16 42 -28 26 -38 -14 -9 8 -20 54 -27 44 -7 115 -23 159 -36 111
-31 114 -31 170 6 96 62 111 67 70 20 l-40 -47 45 24 c25 13 45 36 45 51 0 15
16 33 35 41 32 13 31 16 -7 30 -30 12 -46 41 -56 100 -15 94 -93 259 -140 299
-18 14 -32 43 -32 63 0 21 -10 38 -23 38 -16 0 -19 -34 -9 -111z m112 -112
c76 -105 76 -129 1 -85 -53 32 -80 79 -81 143 0 41 17 29 80 -58z m-153 -292
c-58 -4 -114 -20 -128 -36 -13 -16 -33 -29 -44 -29 -11 0 2 18 28 39 34 29 74
39 147 37 l100 -3 -103 -8z m26 -56 c0 -23 -12 -29 -41 -21 -23 6 -49 12 -58
12 -9 0 -11 9 -4 20 20 33 103 24 103 -11z m166 2 c-16 -15 -56 -35 -89 -43
l-60 -14 50 42 c59 50 149 64 99 15z"/>
<path d="M4152 2180 c20 -88 21 -144 2 -269 -13 -87 -11 -94 13 -62 26 36 28
36 48 1 11 -20 33 -39 48 -41 68 -10 174 -92 162 -125 -11 -30 -8 -31 22 -6
50 40 66 10 21 -41 l-38 -43 52 33 c28 18 59 26 69 18 9 -8 1 10 -18 41 l-35
56 86 -11 c84 -11 85 -11 34 18 -39 22 -70 25 -118 11 -57 -16 -78 -10 -173
53 -113 75 -118 85 -135 275 -5 65 -20 128 -33 140 -18 17 -19 5 -7 -48z"/>
<path d="M4280 2124 c0 -41 71 -221 114 -289 50 -81 83 -103 44 -31 -24 44
-24 44 31 9 85 -56 79 -27 -8 38 -85 64 -111 107 -132 217 -12 62 -49 104 -49
56z"/>
<path d="M560 1991 c0 -31 34 -78 100 -137 103 -93 118 -128 75 -171 -19 -19
-12 -34 33 -70 l58 -46 -61 -44 c-87 -61 -125 -56 -125 17 0 55 -6 60 -70 60
-81 0 -100 -63 -30 -100 22 -12 39 -28 37 -36 -5 -38 6 -47 33 -24 25 21 30
16 31 -33 1 -37 7 -46 15 -27 8 17 31 33 51 36 163 28 215 377 72 479 -19 13
-40 45 -46 71 -7 26 -24 48 -38 48 -14 1 -50 6 -80 12 -47 10 -55 5 -55 -35z"/>
<path d="M2176 1703 c-171 -52 -269 -116 -320 -211 -18 -33 -15 -36 27 -25 26
7 69 19 95 26 l48 13 -13 -138 c-8 -76 -19 -178 -25 -228 -10 -83 -7 -92 42
-114 62 -28 78 -1 100 180 13 103 18 111 53 93 50 -27 54 -23 196 151 121 150
139 199 100 271 -27 51 -86 47 -303 -18z m260 -38 c7 -47 -190 -331 -218 -314
-30 19 -21 45 52 146 114 159 105 166 -118 93 -183 -60 -209 -62 -165 -13 19
20 84 48 146 62 63 14 146 37 185 52 89 32 110 28 118 -26z m-207 -155 c-64
-84 -59 -83 -61 -11 -2 57 15 72 88 79 15 1 4 -27 -27 -68z m-127 -198 c-37
-223 -42 -240 -64 -218 -22 22 10 285 45 366 36 82 45 9 19 -148z"/>
<path d="M3360 1171 c0 -17 -10 -31 -23 -31 -82 0 24 -26 118 -29 63 -2 144
-19 180 -38 103 -54 76 -9 -30 49 -123 68 -245 93 -245 49z"/>
<path d="M5640 626 c-457 -692 -426 -626 -291 -626 65 0 111 9 111 21 0 12 9
16 20 9 11 -7 20 7 20 30 0 104 115 122 204 33 45 -45 53 -63 32 -76 -15 -10
25 -17 100 -17 122 0 126 2 113 45 -54 173 -143 267 -283 296 -131 27 -142 -7
123 399 143 218 211 340 207 371 -4 34 -95 -90 -356 -485z"/>
<path d="M4853 1032 c-27 -42 -45 -49 -103 -41 -71 9 -113 -81 -45 -99 14 -3
58 -17 98 -30 138 -44 336 36 209 85 -16 6 -41 35 -55 65 -36 74 -65 79 -104
20z"/>
<path d="M3360 1025 c0 -21 94 -145 111 -145 11 0 50 25 87 56 l67 55 -133 20
c-72 11 -132 17 -132 14z"/>
<path d="M4699 800 c-23 -15 -22 -24 7 -55 54 -61 43 -101 -31 -110 l-65 -7
60 -24 c33 -13 76 -33 95 -44 82 -47 150 14 106 96 -45 85 -139 164 -172 144z"/>
<path d="M365 5 c173 -3 457 -3 630 0 173 3 32 6 -315 6 -347 0 -488 -3 -315
-6z"/>
</g>
</svg>
