<?xml version="1.0" standalone="no"?>
<!DOCTYPE svg PUBLIC "-//W3C//DTD SVG 20010904//EN"
 "http://www.w3.org/TR/2001/REC-SVG-20010904/DTD/svg10.dtd">
<svg version="1.0" xmlns="http://www.w3.org/2000/svg"
 width="450.000000pt" height="253.000000pt" viewBox="0 0 450.000000 253.000000"
 preserveAspectRatio="xMidYMid meet">
<metadata>
Created by potrace 1.10, written by Peter Selinger 2001-2011
</metadata>
<g transform="translate(0.000000,253.000000) scale(0.100000,-0.100000)"
fill="#000000" stroke="none">
<path d="M5 1265 c0 -698 1 -983 2 -632 2 351 2 923 0 1270 -1 348 -2 61 -2
-638z"/>
<path d="M270 2524 c-5 -162 -32 -331 -170 -1037 -44 -224 -80 -420 -80 -436
0 -26 6 -32 48 -48 29 -11 73 -18 116 -18 l69 0 19 36 c12 23 26 93 39 190 28
216 92 614 140 871 l40 218 -25 32 c-35 46 -196 203 -196 192z m101 -189 c38
-31 69 -60 69 -65 0 -20 -122 -769 -146 -891 -14 -74 -30 -170 -36 -213 -5
-44 -14 -90 -19 -103 -14 -37 -54 -48 -119 -32 -54 14 -55 15 -53 49 0 19 19
130 42 245 67 348 161 874 173 973 7 50 14 92 16 92 1 0 34 -25 73 -55z"/>
<path d="M840 2508 c0 -13 7 -66 15 -118 13 -77 21 -100 43 -123 37 -40 122
-110 126 -106 2 2 -2 38 -9 79 -8 41 -14 100 -15 130 0 30 -3 79 -6 108 -6 43
-10 52 -27 52 -19 0 -20 -4 -14 -130 3 -71 4 -130 1 -130 -2 0 -15 17 -28 38
-18 27 -29 63 -37 130 -11 78 -15 92 -31 92 -12 0 -18 -7 -18 -22z"/>
<path d="M1044 2508 c3 -13 8 -53 11 -89 5 -55 12 -74 43 -116 20 -27 52 -71
71 -96 19 -25 37 -44 40 -42 4 2 3 45 -1 97 -4 51 -10 132 -14 181 -5 78 -8
87 -26 87 -21 0 -21 -17 -2 -182 3 -27 2 -48 -3 -48 -14 0 -63 86 -63 112 0
14 -3 46 -6 72 -6 40 -10 46 -31 46 -19 0 -23 -4 -19 -22z"/>
<path d="M1838 2523 c12 -2 30 -2 40 0 9 3 -1 5 -23 4 -22 0 -30 -2 -17 -4z"/>
<path d="M2028 2523 c34 -2 90 -2 125 0 34 2 6 3 -63 3 -69 0 -97 -1 -62 -3z"/>
<path d="M3563 2523 c26 -2 67 -2 90 0 23 2 2 3 -48 3 -49 0 -68 -1 -42 -3z"/>
<path d="M3813 2523 c15 -2 39 -2 55 0 15 2 2 4 -28 4 -30 0 -43 -2 -27 -4z"/>
<path d="M4028 2523 c12 -2 32 -2 45 0 12 2 2 4 -23 4 -25 0 -35 -2 -22 -4z"/>
<path d="M2830 2478 c-19 -18 -35 -36 -35 -41 0 -6 -39 -33 -87 -61 -115 -68
-120 -86 -7 -28 l91 47 203 0 c112 0 206 2 208 5 6 6 -160 13 -305 14 l-96 0
39 43 c21 23 39 45 39 48 0 12 -17 3 -50 -27z"/>
<path d="M1897 2449 c3 -10 9 -16 14 -13 13 8 11 21 -5 27 -10 4 -12 0 -9 -14z"/>
<path d="M3253 2441 c-17 -16 -29 -32 -26 -34 3 -3 -14 -18 -38 -34 -40 -26
-49 -28 -133 -26 -65 1 -86 -1 -73 -8 9 -6 14 -15 11 -21 -5 -8 -1 -9 12 -4
10 5 57 12 104 17 99 11 172 -1 240 -38 25 -13 36 -21 25 -18 -23 8 -247 36
-252 32 -1 -2 21 -9 50 -16 86 -22 188 -76 255 -136 34 -31 62 -61 62 -67 0
-10 -7 -9 -55 6 -11 3 -2 -3 20 -14 54 -26 145 -26 204 0 52 24 64 20 24 -8
-47 -33 -91 -52 -118 -52 -15 0 -24 -4 -20 -10 3 -5 14 -10 24 -10 21 0 83
-63 105 -107 19 -38 21 -55 3 -32 -17 22 -87 69 -103 69 -8 0 -3 -10 12 -25
14 -14 37 -51 52 -83 24 -51 27 -69 28 -180 1 -83 6 -128 15 -138 17 -21 64
-44 89 -44 31 0 24 -17 -11 -24 -37 -7 -95 -6 -66 1 15 4 12 8 -15 21 -25 13
-38 30 -53 69 -18 45 -25 53 -60 63 -59 17 -148 70 -253 149 -105 78 -216 139
-311 170 -35 12 -67 21 -70 21 -14 -1 34 -30 49 -30 34 0 231 -110 327 -183
91 -68 204 -135 259 -151 12 -4 29 -26 42 -55 12 -27 29 -54 39 -60 17 -10 17
-10 -1 -11 -33 0 -8 -13 41 -20 39 -6 58 -3 98 15 48 21 89 55 67 55 -6 0 -14
-4 -17 -10 -3 -5 -24 -10 -45 -10 -30 0 -48 8 -74 31 l-35 30 2 112 c2 104 0
116 -26 171 -15 32 -26 61 -23 63 2 2 22 -17 45 -43 25 -29 41 -41 41 -31 0
27 -49 129 -80 168 l-29 37 48 29 c49 31 109 98 97 110 -3 4 -16 -3 -29 -15
-29 -27 -80 -48 -140 -57 l-48 -7 -68 69 c-47 49 -89 80 -140 106 -41 20 -66
37 -56 37 27 0 136 -30 168 -47 23 -11 28 -12 25 -1 -8 23 -131 87 -203 105
l-70 18 33 29 c36 32 78 86 65 86 -4 0 -22 -14 -40 -29z"/>
<path d="M623 2369 l-50 -94 62 -125 c34 -69 126 -264 203 -435 77 -170 163
-362 192 -425 28 -63 64 -146 80 -185 15 -38 49 -112 74 -164 25 -52 46 -100
46 -107 0 -27 21 -22 91 21 40 25 77 49 81 53 5 5 -37 103 -93 218 -56 115
-179 372 -275 572 -96 200 -209 432 -251 515 -42 84 -83 174 -93 201 l-16 49
-51 -94z m195 -309 c76 -151 158 -324 182 -385 46 -116 237 -505 315 -639 50
-88 50 -85 -17 -125 l-37 -22 -40 79 c-22 43 -57 121 -79 173 -22 52 -81 186
-132 299 -173 383 -339 747 -361 793 -22 46 -22 46 -4 81 11 20 23 32 27 28 4
-4 70 -132 146 -282z"/>
<path d="M2749 2436 c-2 -2 -58 -14 -124 -25 -212 -38 -299 -77 -380 -172 -49
-58 -68 -88 -47 -75 7 4 8 -3 2 -24 -5 -16 -5 -42 0 -57 8 -25 8 -24 9 15 3
150 141 250 412 297 85 15 179 43 148 44 -9 1 -18 -1 -20 -3z"/>
<path d="M2855 2355 c26 -9 105 -12 105 -4 0 5 -26 9 -57 8 -32 0 -53 -2 -48
-4z"/>
<path d="M2537 2296 c-65 -27 -140 -82 -207 -151 l-45 -47 43 22 c24 12 41 24
38 28 -13 12 82 88 157 126 42 22 77 41 77 43 0 5 0 5 -63 -21z"/>
<path d="M2171 2253 c-58 -60 -81 -108 -81 -173 0 -33 0 -33 -21 -14 -27 23
-49 74 -49 111 -1 25 -2 26 -11 9 -6 -10 -9 -45 -7 -77 4 -50 9 -64 36 -92
l32 -33 -24 -24 c-13 -14 -36 -56 -52 -95 -23 -57 -29 -85 -29 -152 0 -73 -2
-83 -18 -83 -27 0 -73 26 -96 56 -12 15 -23 25 -25 23 -3 -2 0 -25 5 -51 13
-58 46 -109 82 -126 28 -14 34 -26 17 -37 -13 -8 -83 -145 -74 -145 4 0 26 18
49 39 24 22 56 46 72 54 l28 15 -3 -73 c-4 -81 15 -164 48 -205 l20 -25 0 75
0 75 19 -40 c10 -23 29 -48 43 -57 14 -9 29 -29 33 -45 3 -15 16 -38 28 -51
20 -21 46 -96 46 -132 0 -25 -51 -54 -104 -60 l-50 -6 35 -22 c19 -12 51 -25
71 -28 l36 -6 -19 -37 c-10 -21 -21 -62 -24 -92 l-6 -54 29 45 c48 73 58 77
59 21 0 -30 8 -61 21 -82 36 -57 23 -80 -68 -129 -43 -24 -98 -62 -122 -85
-25 -23 -55 -45 -69 -48 -18 -5 -143 42 -479 179 -250 103 -521 215 -602 250
-135 57 -148 61 -143 41 4 -12 19 -79 34 -149 24 -115 29 -128 52 -137 92 -36
753 -271 762 -271 28 0 -11 -20 -68 -34 -39 -10 -105 -16 -177 -16 -167 0
-212 -12 -267 -69 -37 -38 -110 -161 -110 -185 0 -23 22 3 49 58 17 36 51 85
74 109 36 37 53 45 105 56 34 6 113 11 175 10 102 -1 120 1 183 27 l69 28 115
-41 c350 -124 335 -118 332 -144 -1 -13 -11 -41 -22 -62 -26 -48 -25 -55 2
-31 20 18 21 18 15 1 -4 -10 -3 -16 2 -13 5 3 12 31 16 61 4 36 11 55 18 53 7
-2 33 -10 60 -18 26 -8 47 -18 47 -22 0 -4 -14 -23 -31 -43 -21 -23 -26 -35
-16 -35 8 0 25 16 38 35 32 46 53 46 47 0 -3 -29 -1 -35 14 -35 11 0 18 6 17
13 -5 40 16 47 81 23 39 -13 110 -2 93 15 -7 7 -864 321 -1453 532 l-154 55
-18 68 c-22 85 -23 100 -5 86 14 -12 454 -196 1132 -473 417 -170 453 -187
494 -229 25 -25 46 -39 49 -32 8 24 -98 148 -114 133 -5 -5 -22 0 -39 10 -16
10 -26 19 -21 19 5 0 3 6 -3 13 -24 30 93 84 122 56 8 -8 24 -20 35 -28 12 -8
24 -28 27 -43 3 -15 8 -42 11 -58 4 -23 2 -30 -11 -30 -13 0 -12 -5 7 -32 53
-77 80 -98 122 -98 l41 0 -26 18 c-93 62 -100 76 -114 233 -9 97 -17 111 -43
78 -28 -34 -39 -17 -12 19 19 26 31 31 89 37 121 13 302 81 444 168 43 27 67
48 67 60 0 12 6 17 18 15 13 -3 18 -18 24 -71 3 -38 9 -75 12 -83 3 -8 -20
-48 -52 -92 -32 -42 -99 -146 -150 -230 l-91 -152 28 0 c23 0 30 6 35 26 4 15
18 41 32 59 13 17 24 35 24 40 0 9 107 182 130 210 10 11 26 36 36 55 10 19
23 38 28 41 4 4 8 23 8 43 0 20 3 36 6 36 3 0 31 -24 61 -54 31 -29 76 -73
101 -96 25 -24 55 -45 67 -46 13 -1 33 -6 45 -10 13 -5 30 -9 38 -9 8 -1 22
-4 30 -7 34 -13 207 -58 222 -58 23 0 29 -26 13 -57 -20 -39 -19 -47 16 -114
25 -47 37 -59 56 -59 l24 0 -19 27 c-10 16 -30 46 -44 68 l-25 39 85 111 c47
60 102 130 122 155 20 25 95 128 166 230 71 102 161 227 202 279 85 109 112
158 112 203 0 32 -2 30 -48 -42 -66 -102 -415 -571 -519 -696 -92 -111 -111
-122 -171 -97 -20 8 -93 28 -162 43 -141 32 -180 45 -180 59 0 6 -25 29 -55
51 -30 22 -55 47 -55 55 0 8 9 29 20 47 25 44 53 154 46 183 -14 55 15 29 53
-48 l42 -82 -7 60 c-8 85 -32 176 -51 197 -21 24 -12 31 21 18 35 -13 93 -13
101 0 4 6 -6 11 -22 11 -15 1 15 7 67 14 273 37 346 45 463 56 l129 12 94 101
c65 69 90 102 81 108 -6 4 -180 8 -385 8 l-373 0 16 30 c8 16 15 38 15 50 0
33 17 23 40 -26 16 -33 25 -42 31 -32 14 22 10 95 -8 140 -11 26 -13 43 -6 45
5 2 19 11 29 19 18 15 18 15 -1 8 -11 -4 -32 -9 -46 -11 l-25 -5 23 -46 c13
-26 23 -62 22 -86 0 -38 -1 -39 -10 -16 -11 28 -68 90 -83 90 -5 0 -2 -8 7
-18 10 -10 17 -27 17 -38 -1 -32 -38 -104 -55 -105 -54 -2 -106 -1 -110 2 -2
3 1 24 6 48 8 35 7 48 -6 68 l-16 24 31 -16 c18 -9 34 -14 37 -12 2 3 -22 19
-54 36 -32 17 -83 51 -114 76 -53 42 -58 49 -80 125 -12 44 -27 80 -32 80 -5
0 -7 -6 -4 -12 2 -7 12 -40 22 -73 22 -76 48 -129 92 -182 19 -24 32 -43 29
-43 -15 0 -136 79 -172 112 l-42 39 1 77 c1 42 -5 97 -12 122 -16 54 -27 38
-12 -17 19 -67 13 -166 -14 -240 -13 -37 -22 -69 -20 -72 6 -5 44 79 45 97 0
23 15 12 42 -32 18 -30 23 -46 15 -49 -8 -3 -3 -14 12 -31 14 -14 19 -26 12
-26 -8 0 -5 -10 8 -29 12 -16 21 -34 21 -41 0 -6 4 -8 10 -5 6 4 4 17 -5 36
-9 16 -11 29 -5 29 18 0 10 15 -17 33 -24 15 -25 17 -5 12 27 -8 29 6 2 22
-10 7 -24 23 -31 35 -11 22 -11 22 7 7 10 -9 45 -31 76 -49 l58 -32 -16 -36
c-26 -60 -26 -62 -22 -62 3 0 15 20 28 45 17 34 28 44 39 39 9 -3 25 -9 36
-12 17 -4 16 -2 -5 16 l-25 21 26 1 c46 0 58 -32 43 -109 -7 -35 -35 -42 -61
-16 -15 16 -54 11 -61 -6 -2 -5 -13 -9 -24 -9 -15 0 -18 4 -14 18 4 10 -3 7
-19 -10 -17 -18 -25 -38 -25 -62 0 -55 -111 -268 -170 -327 -91 -91 -319 -224
-404 -235 -95 -13 -126 11 -253 203 -102 156 -157 262 -168 331 -4 23 -8 119
-9 211 l-2 169 27 16 c15 9 44 16 66 16 35 0 40 -4 71 -54 18 -29 42 -63 54
-76 l21 -22 -24 7 c-13 4 -60 23 -104 41 -44 19 -81 34 -84 34 -3 0 6 -12 20
-27 32 -36 69 -90 69 -100 0 -20 38 -30 83 -23 62 9 67 16 18 25 -23 4 -44 11
-47 17 -4 6 1 8 15 3 12 -3 21 -2 21 4 0 19 53 0 80 -29 32 -34 53 -41 24 -9
-14 16 -15 21 -4 17 8 -2 21 -17 28 -31 11 -23 11 -43 -2 -124 -16 -102 -12
-123 25 -123 24 0 30 12 14 27 -11 10 -15 10 -19 0 -4 -7 -4 1 -1 16 4 20 2
27 -6 22 -8 -6 -9 4 -3 36 11 56 9 162 -5 230 0 4 -24 21 -51 39 -58 37 -90
77 -90 112 0 36 41 151 51 141 4 -4 10 -53 11 -108 l3 -100 29 59 c16 32 34
90 40 127 10 63 12 68 33 64 12 -2 25 0 28 5 8 12 -5 60 -16 60 -5 0 -4 -11 1
-24 8 -21 6 -23 -17 -23 -15 0 -20 2 -13 7 9 5 9 9 1 14 -6 4 -11 23 -11 42 0
19 -3 34 -7 34 -5 0 -8 -39 -8 -88 0 -85 -27 -216 -46 -228 -6 -3 -7 17 -3 48
7 65 -6 133 -26 133 -19 0 -57 -95 -68 -167 l-8 -53 -14 40 c-9 25 -15 80 -15
147 0 58 -3 101 -7 95 -4 -7 -8 -31 -8 -54 0 -23 -5 -54 -10 -69 -15 -38 -139
-164 -156 -157 -19 7 -18 39 2 47 12 5 14 1 9 -17 -3 -12 6 2 19 31 14 29 28
70 32 90 3 20 8 45 11 56 3 12 1 16 -6 12 -6 -4 -11 -19 -11 -34 -1 -52 -36
-109 -99 -158 -34 -26 -59 -49 -57 -52 3 -2 17 5 32 17 29 23 54 15 54 -18 1
-9 7 -27 16 -41 14 -25 14 -24 8 13 -4 24 -2 37 5 37 21 0 12 -67 -14 -98 -24
-29 -34 -85 -17 -96 4 -2 7 12 5 32 l-3 37 13 -40 c7 -22 10 -41 6 -43 -5 -2
-5 -10 -2 -18 3 -7 9 -11 14 -8 5 3 9 -14 9 -38 -1 -40 -2 -42 -15 -24 -8 11
-15 27 -15 36 0 9 -8 32 -19 52 -14 29 -18 56 -16 132 1 53 -1 93 -6 91 -9 -6
-5 -191 5 -220 5 -14 0 -11 -18 10 -33 39 -50 88 -42 128 5 30 5 31 -9 13 -18
-24 -29 -96 -22 -144 5 -33 5 -35 -8 -19 -23 32 -38 150 -26 207 6 28 11 55
11 61 0 14 -74 -26 -116 -63 l-37 -33 18 35 c9 18 40 55 67 82 40 39 44 46 23
38 -41 -16 -87 11 -119 69 -31 58 -34 84 -6 48 37 -47 121 -58 152 -19 11 13
10 15 -4 10 -11 -5 -18 0 -22 15 -27 101 55 325 114 310 29 -8 24 4 -9 22 -38
19 -67 60 -75 105 -6 34 -5 34 7 8 17 -36 46 -67 80 -85 32 -16 45 -12 22 7
-21 17 -19 96 4 145 40 85 74 104 46 25 -16 -45 -20 -135 -7 -144 4 -2 8 12 9
32 2 65 10 117 22 139 14 28 14 36 -1 27 -8 -4 -10 -3 -5 2 5 5 13 9 19 9 6 0
17 10 26 23 28 43 -8 23 -67 -35z m168 -715 c-33 -28 -42 -21 -17 12 16 22 24
27 30 18 5 -8 0 -20 -13 -30z m1067 -215 c17 -10 15 -12 -16 -12 -29 -1 -39 6
-62 38 -16 22 -28 42 -28 45 0 3 20 -9 44 -27 24 -17 52 -37 62 -44z m-1052
32 c8 -8 17 -23 21 -34 3 -10 15 -23 28 -29 21 -10 21 -11 1 -11 -24 -1 -44
14 -68 49 -26 40 -14 57 18 25z m152 0 c17 -13 17 -14 2 -15 -10 0 -18 4 -18
9 0 5 -8 12 -17 14 -14 4 -15 5 -2 6 8 0 24 -6 35 -14z m-298 -81 l-3 -39 -12
39 c-13 41 -8 65 9 48 5 -5 8 -27 6 -48z m1988 -214 l-62 -60 -195 -20 c-107
-11 -221 -25 -254 -31 -33 -6 -138 -18 -233 -28 l-172 -17 0 77 c0 42 3 91 6
108 l7 31 482 0 483 0 -62 -60z m-976 -151 l0 -60 85 7 85 7 24 -54 c13 -30
27 -74 30 -99 l7 -45 -24 42 c-31 52 -60 92 -67 93 -3 0 -4 -29 -2 -64 4 -66
-18 -167 -43 -196 -7 -8 -15 -24 -17 -35 -3 -17 -7 -14 -26 18 -13 20 -34 40
-47 43 -15 4 -25 15 -29 35 -3 18 -15 34 -31 41 -31 14 -32 38 -2 75 33 40 59
84 54 89 -2 2 -16 -13 -30 -35 -36 -55 -87 -111 -100 -111 -6 0 -1 10 10 23
32 35 50 77 63 147 17 95 31 140 47 140 9 0 13 -17 13 -61z m-888 -214 c5
-147 13 -169 85 -246 30 -32 46 -59 50 -85 4 -25 3 -35 -5 -30 -6 3 -13 2 -17
-4 -3 -5 -13 -10 -20 -10 -12 0 -12 5 -3 25 8 19 14 22 20 13 6 -10 8 -9 8 4
0 33 -20 28 -37 -9 -9 -21 -30 -52 -46 -69 l-28 -31 -55 22 c-30 12 -57 25
-60 28 -3 3 1 19 10 35 8 16 20 47 25 68 5 22 23 82 38 134 27 90 28 96 12
112 -23 22 -34 99 -21 138 15 42 1 38 -52 -17 -25 -25 -46 -43 -46 -40 0 18
43 117 55 127 24 20 17 30 -15 24 -16 -4 -46 -3 -67 1 l-38 7 38 14 c21 7 51
22 65 33 l26 19 37 -66 c36 -66 37 -70 41 -197z m807 114 c-14 -67 -50 -133
-101 -181 -52 -51 -28 -48 34 3 27 23 51 40 53 37 2 -2 2 -20 -2 -41 -5 -34
-10 -38 -115 -92 -61 -31 -112 -54 -114 -52 -3 2 14 35 36 72 22 38 37 71 35
74 -7 6 -6 7 -59 -85 l-46 -81 -87 -26 c-49 -15 -107 -30 -130 -33 l-42 -6
-15 53 c-9 29 -16 57 -16 63 0 7 24 11 58 12 45 0 74 8 142 40 161 77 314 192
355 268 11 19 21 34 22 32 2 -2 -2 -27 -8 -57z m-724 -107 c35 -54 75 -110 90
-126 14 -15 37 -56 49 -90 13 -33 27 -69 31 -78 6 -14 2 -18 -17 -18 -16 0
-30 -10 -42 -31 -23 -39 -40 -33 -46 18 -5 30 -15 48 -43 72 -61 54 -75 85
-82 191 -3 52 -8 110 -11 128 -3 17 -2 32 1 32 3 0 34 -44 70 -98z m-184 -284
c-12 -40 -25 -79 -30 -87 -7 -15 -51 -23 -51 -10 0 14 -34 19 -42 7 -7 -10 -9
-9 -5 2 2 9 -8 20 -26 28 l-31 13 25 16 c13 9 29 21 34 27 28 30 133 90 144
80 1 -1 -7 -36 -18 -76z m349 -132 c0 -18 -1 -18 -20 -1 -16 14 -17 21 -8 32
9 11 13 11 19 1 5 -7 9 -22 9 -32z"/>
<path d="M3281 658 c0 -18 4 -53 8 -78 8 -41 9 -39 10 33 0 45 -3 77 -9 77 -5
0 -10 -15 -9 -32z"/>
<path d="M3011 2286 c9 -8 99 -13 99 -5 0 5 -23 9 -52 9 -28 0 -49 -2 -47 -4z"/>
<path d="M2691 2159 c36 -95 18 -263 -46 -420 -19 -48 -22 -65 -13 -70 8 -5
16 -2 22 8 7 13 10 13 17 2 6 -11 11 -11 21 -1 20 20 24 14 25 -46 1 -32 11
-83 23 -113 21 -54 60 -119 71 -119 3 0 0 23 -7 52 -8 29 -14 75 -13 103 l1
50 24 -53 c13 -30 36 -69 49 -86 14 -18 25 -36 25 -40 0 -12 -145 -75 -189
-82 -70 -11 -47 -50 45 -78 14 -4 27 0 39 14 13 15 32 20 69 21 28 1 76 5 106
9 43 7 34 8 -40 4 l-95 -5 30 25 c48 40 82 51 110 36 14 -7 34 -21 44 -32 11
-10 27 -18 36 -18 8 0 15 -7 15 -15 0 -13 -21 -15 -125 -15 -78 0 -125 -4
-125 -10 0 -6 -14 -19 -32 -30 -30 -18 -30 -19 -7 -18 13 1 33 9 44 18 11 10
37 20 59 23 34 5 38 4 33 -14 -8 -30 41 -39 64 -11 10 14 28 22 46 22 l28 -1
-29 -25 c-30 -27 -56 -28 -166 -10 -34 6 -34 6 10 -15 72 -33 101 -31 167 12
31 21 71 44 88 51 l30 13 -35 5 c-35 5 -35 5 -41 67 -7 73 -47 160 -100 218
-20 22 -39 51 -42 65 -3 14 -5 -13 -3 -60 2 -67 8 -97 29 -143 15 -32 31 -56
36 -52 17 10 71 -24 71 -45 0 -27 -18 -25 -42 5 -11 14 -24 23 -29 20 -5 -4
-32 15 -59 41 -52 49 -120 169 -120 213 0 11 -4 21 -9 21 -15 0 -24 -85 -17
-148 8 -70 -5 -60 -33 25 -13 38 -21 87 -20 125 l0 63 59 45 c32 25 73 67 91
95 27 41 33 59 33 110 1 59 -32 225 -44 225 -3 0 -4 -26 -2 -58 5 -66 -15
-144 -50 -195 l-23 -34 -1 66 c0 36 -6 77 -13 91 -21 40 -95 150 -103 150 -3
0 3 -23 13 -51z m84 -194 c0 -70 -4 -89 -34 -152 -34 -74 -111 -164 -96 -113
4 14 13 36 20 50 45 89 72 282 52 370 -7 32 -5 30 25 -20 30 -50 33 -62 33
-135z m124 17 c1 -85 -19 -122 -122 -215 -47 -42 -87 -77 -90 -77 -7 0 98 175
130 217 29 38 63 122 64 161 l1 27 8 -25 c4 -14 8 -53 9 -88z m125 -502 c15
-28 26 -54 23 -56 -2 -3 -25 7 -50 22 -41 25 -46 33 -56 82 -6 31 -11 60 -11
66 1 18 64 -59 94 -114z m-210 -148 c-37 -38 -84 -51 -84 -23 0 9 92 51 99 45
1 -1 -5 -11 -15 -22z"/>
<path d="M3315 2181 l-30 -8 44 -12 c24 -7 55 -17 70 -22 24 -8 23 -6 -9 21
-19 16 -37 29 -40 29 -3 -1 -18 -5 -35 -8z"/>
<path d="M3275 2130 c4 -6 34 -24 68 -42 34 -17 65 -35 68 -39 7 -12 67 -29
99 -29 18 1 8 8 -35 25 -33 14 -90 41 -127 60 -70 37 -83 41 -73 25z"/>
<path d="M2345 2082 c-25 -19 -88 -92 -83 -97 2 -3 24 1 47 10 68 23 209 45
306 46 70 1 82 3 55 9 -40 10 -171 3 -215 -10 -68 -21 -161 -18 -126 4 10 7
35 46 29 46 -2 0 -7 -4 -13 -8z"/>
<path d="M3463 1967 c31 -30 57 -59 57 -62 0 -4 8 -15 18 -24 16 -14 25 -35
38 -86 1 -5 3 -17 5 -25 3 -8 -4 -16 -16 -18 -40 -6 -288 93 -448 179 -33 18
-149 59 -166 59 -9 0 25 -18 74 -39 50 -21 144 -65 210 -98 66 -33 154 -70
195 -83 79 -23 144 -52 173 -78 15 -14 17 -13 17 4 0 41 -28 134 -52 175 -31
53 -84 107 -130 133 -26 15 -22 8 25 -37z"/>
<path d="M2392 1948 c-88 -20 -93 -22 -108 -55 -19 -39 -79 -90 -142 -122 -24
-13 -42 -25 -39 -27 7 -7 103 44 118 62 6 8 17 14 23 14 7 0 25 20 40 45 18
29 39 48 60 54 64 21 222 43 267 37 26 -4 57 -2 70 3 49 20 -191 10 -289 -11z"/>
<path d="M1690 1857 c0 -8 6 -14 13 -14 8 0 14 6 14 14 0 7 -6 13 -14 13 -7 0
-13 -6 -13 -13z"/>
<path d="M2023 1583 c-18 -6 -16 -23 1 -23 17 0 30 16 19 23 -5 2 -14 2 -20 0z"/>
<path d="M2650 1455 c-6 -16 -13 -52 -15 -80 -4 -50 -4 -50 12 -21 8 15 12 37
9 49 -3 11 0 29 5 39 6 11 8 24 6 31 -3 7 -10 -1 -17 -18z"/>
<path d="M2304 1436 c15 -13 47 -34 70 -47 l41 -23 -35 34 c-19 18 -51 39 -70
47 l-35 14 29 -25z"/>
<path d="M3598 1408 c9 -9 15 -9 24 0 9 9 7 12 -12 12 -19 0 -21 -3 -12 -12z"/>
<path d="M2572 1381 c1 -17 5 -28 10 -25 11 7 10 41 -1 49 -5 3 -9 -8 -9 -24z"/>
<path d="M3576 1382 c-3 -5 6 -20 19 -32 19 -18 25 -20 25 -8 0 19 -36 52 -44
40z"/>
<path d="M3556 1278 c-5 -42 -6 -82 -3 -90 6 -18 20 112 15 143 -2 13 -8 -11
-12 -53z"/>
<path d="M2291 1335 c0 -5 6 -21 14 -35 8 -14 14 -20 14 -15 0 6 -6 21 -14 35
-8 14 -14 21 -14 15z"/>
<path d="M1731 1299 c-29 -10 -93 -28 -140 -40 -87 -21 -88 -22 -150 -91 -35
-38 -61 -71 -59 -74 3 -2 22 2 44 9 21 8 54 17 72 20 28 6 33 4 28 -11 -3 -9
-12 -84 -21 -166 -17 -153 -15 -165 21 -166 7 0 15 -8 18 -17 12 -31 26 2 46
112 11 60 20 113 20 119 0 5 10 0 23 -12 13 -12 28 -22 35 -22 6 0 54 54 107
120 104 132 115 162 74 214 -24 31 -44 32 -118 5z m98 -44 c10 -38 15 -29
-138 -235 -18 -23 -20 -24 -36 -9 -16 15 -13 22 44 104 34 49 61 95 61 102 0
19 -26 13 -178 -38 -63 -21 -117 -38 -118 -36 -1 1 10 16 26 34 24 27 45 36
137 58 59 14 122 32 138 40 46 20 53 18 64 -20z m-149 -116 c-22 -28 -40 -55
-40 -60 0 -5 -4 -9 -9 -9 -5 0 -7 18 -4 40 4 29 2 40 -7 40 -22 0 -1 14 38 26
62 20 64 16 22 -37z m-100 -144 c-11 -66 -22 -135 -25 -152 -6 -31 -27 -44
-39 -25 -9 14 40 280 54 297 26 32 29 -3 10 -120z"/>
<path d="M2647 1252 c-18 -20 -22 -42 -9 -42 10 0 35 50 29 56 -2 2 -11 -4
-20 -14z"/>
<path d="M3055 1225 c-16 -14 -25 -25 -19 -25 6 0 21 11 34 25 30 32 24 31
-15 0z"/>
<path d="M3349 1224 l-24 -26 37 22 c21 12 42 19 48 15 5 -3 10 -1 10 4 0 21
-47 11 -71 -15z"/>
<path d="M2660 1215 c0 -7 278 -146 400 -200 55 -24 100 -40 100 -35 0 11 -54
50 -69 50 -6 0 -19 4 -29 10 -31 17 -286 136 -339 158 -54 23 -63 25 -63 17z"/>
<path d="M2614 1106 c-3 -21 -4 -39 -1 -42 3 -4 9 10 13 30 3 21 4 39 1 42 -3
4 -9 -10 -13 -30z"/>
<path d="M2519 1004 c-11 -14 -10 -18 6 -27 10 -5 28 -20 40 -33 17 -18 23
-20 38 -9 18 13 23 35 8 35 -5 0 -11 -6 -14 -12 -2 -8 -10 -1 -17 15 -7 15
-20 27 -27 27 -8 0 -11 5 -8 10 10 16 -11 11 -26 -6z"/>
<path d="M2614 999 c-4 -7 1 -16 10 -21 9 -5 14 -13 11 -19 -8 -12 2 -11 26 2
20 10 19 11 -5 30 -28 22 -32 23 -42 8z"/>
<path d="M2516 868 c-17 -33 -14 -50 5 -31 8 8 20 8 40 1 16 -6 41 -7 54 -4
16 4 49 -3 91 -20 36 -14 68 -23 71 -20 3 3 -3 9 -13 13 -10 4 -45 22 -76 40
-35 20 -70 33 -92 33 -19 0 -38 5 -41 10 -11 18 -23 11 -39 -22z m104 -8 c12
-8 11 -10 -7 -10 -13 0 -23 5 -23 10 0 13 11 13 30 0z"/>
<path d="M4475 827 c-12 -18 -141 -211 -288 -429 -255 -380 -266 -398 -239
-398 25 0 37 14 106 120 43 66 83 123 88 126 5 3 14 1 21 -4 7 -5 41 -17 77
-26 36 -10 72 -23 81 -29 27 -20 97 -126 104 -158 5 -20 13 -29 26 -29 23 0
21 11 -16 96 -46 104 -114 154 -227 169 -27 3 -48 8 -48 9 0 7 192 308 264
414 53 78 76 121 76 142 0 17 -1 30 -2 30 -2 -1 -12 -15 -23 -33z"/>
<path d="M2534 755 c11 -31 57 -95 67 -95 6 0 29 16 52 35 22 19 44 35 49 35
4 0 8 3 8 8 0 4 -21 8 -47 8 -27 1 -67 6 -91 11 -34 8 -42 8 -38 -2z m81 -28
c28 -17 29 -37 2 -37 -25 0 -47 17 -47 37 0 16 19 16 45 0z"/>
<path d="M3701 687 c2 -1 12 -9 22 -16 14 -12 17 -11 17 3 0 10 -8 16 -22 16
-12 0 -19 -1 -17 -3z"/>
<path d="M1293 197 c-38 -40 -96 -197 -72 -197 5 0 9 6 9 14 0 41 43 148 71
176 17 17 29 33 27 35 -2 3 -18 -10 -35 -28z"/>
<path d="M1860 167 c-25 -23 -76 -70 -115 -104 -38 -35 -65 -63 -59 -63 7 0
40 26 75 59 35 32 79 71 97 86 27 23 60 66 50 65 -2 0 -23 -19 -48 -43z"/>
<path d="M2080 60 c-7 -28 -10 -53 -8 -55 3 -3 10 18 16 47 7 28 11 53 8 55
-2 2 -9 -19 -16 -47z"/>
<path d="M293 3 c131 -2 343 -2 470 0 128 1 21 2 -238 2 -259 0 -363 -1 -232
-2z"/>
<path d="M2783 3 c15 -2 39 -2 55 0 15 2 2 4 -28 4 -30 0 -43 -2 -27 -4z"/>
</g>
</svg>
