<?xml version="1.0" standalone="no"?>
<!DOCTYPE svg PUBLIC "-//W3C//DTD SVG 20010904//EN"
 "http://www.w3.org/TR/2001/REC-SVG-20010904/DTD/svg10.dtd">
<svg version="1.0" xmlns="http://www.w3.org/2000/svg"
 width="300.000000pt" height="240.000000pt" viewBox="0 0 300.000000 240.000000"
 preserveAspectRatio="xMidYMid meet">
<metadata>
Created by potrace 1.10, written by Peter Selinger 2001-2011
</metadata>
<g transform="translate(0.000000,240.000000) scale(0.050000,-0.050000)"
fill="#000000" stroke="none">
<path d="M324 4765 c-20 -49 -18 -321 3 -405 l18 -70 -42 38 c-23 21 -60 84
-82 140 l-39 102 -1 -130 c-1 -136 57 -301 125 -357 30 -25 28 -34 -23 -110
-79 -118 -103 -187 -130 -376 -22 -154 -28 -168 -83 -196 -81 -42 -78 -40 -65
-52 66 -67 213 109 201 241 -12 125 48 295 145 412 74 88 87 124 39 105 -57
-22 -131 75 -159 208 l-14 65 66 -60 c37 -34 87 -80 112 -104 59 -55 57 -23
-5 100 -38 76 -50 131 -50 227 l1 127 48 -117 c47 -115 119 -213 156 -213 10
0 -5 28 -33 62 -86 101 -58 200 92 325 64 54 76 72 48 73 -39 0 -198 -147
-216 -200 -17 -50 -37 -11 -49 97 -13 105 -37 131 -63 68z"/>
<path d="M802 4745 c-34 -84 -81 -325 -82 -419 0 -143 34 -113 47 41 6 80 30
204 52 274 52 167 40 243 -17 104z"/>
<path d="M1083 4635 c-187 -381 -198 -737 -32 -1048 55 -104 63 -134 21 -76
-40 55 -63 22 -24 -34 43 -62 40 -83 -7 -58 -21 12 -63 75 -93 141 -29 66 -61
120 -71 120 -25 0 -22 -12 31 -116 93 -184 152 -414 150 -580 l-3 -154 -17
107 c-10 59 -27 122 -39 140 -14 24 -16 13 -7 -42 9 -53 5 -75 -13 -75 -18 0
-21 27 -12 102 13 114 -78 338 -137 338 -22 0 -14 -23 30 -83 69 -95 83 -315
37 -575 l-24 -132 -26 137 c-30 165 -102 388 -130 405 -41 25 -37 -10 12 -122
61 -138 63 -179 13 -305 -21 -53 -45 -150 -54 -216 l-15 -119 -25 80 c-14 44
-26 163 -26 265 -1 102 -10 185 -19 185 -10 0 -24 28 -30 61 -7 34 -21 57 -31
50 -10 -6 -16 20 -15 57 2 38 -4 64 -14 58 -10 -7 -14 21 -10 61 5 40 2 73 -7
73 -9 0 -16 22 -16 48 0 26 -13 53 -30 59 -16 7 -30 23 -30 37 1 18 6 17 20
-4 11 -16 20 -21 20 -10 0 11 9 7 19 -9 21 -33 31 -17 46 69 3 22 20 39 37 38
17 -1 31 9 31 24 0 14 -7 22 -15 17 -8 -5 -21 0 -28 11 -7 12 -6 20 4 18 40
-7 67 4 56 22 -7 11 2 20 20 20 18 0 27 -8 21 -19 -6 -10 -1 -25 12 -33 14 -9
18 -6 9 9 -8 13 -3 23 12 23 17 1 19 6 5 15 -12 8 -21 51 -21 95 0 44 -7 129
-16 190 l-17 110 -45 -134 c-64 -190 -122 -274 -218 -317 -64 -29 -74 -40 -47
-50 52 -20 43 -66 -25 -129 -52 -49 -54 -55 -17 -45 30 8 39 4 29 -12 -9 -14
0 -23 25 -23 33 0 39 -14 40 -99 1 -106 47 -215 134 -319 44 -52 57 -95 73
-235 11 -101 38 -213 66 -274 l47 -103 1 77 c2 87 76 394 102 420 9 10 22 -26
30 -80 23 -183 26 -190 71 -167 30 16 42 15 48 -4 19 -55 71 -273 71 -297 0
-28 -156 127 -193 191 -12 22 -29 33 -38 25 -34 -32 190 -290 231 -265 9 5 30
-31 47 -81 31 -91 31 -91 -13 -77 -102 31 -244 169 -266 260 -7 26 -20 48 -30
48 -27 0 -21 -118 12 -247 39 -148 39 -147 -20 -76 -67 79 -110 186 -110 272
0 39 -8 71 -18 71 -28 0 -47 -149 -33 -265 l12 -105 -42 78 c-24 43 -49 137
-56 210 -13 120 -16 128 -39 87 -20 -36 -42 -45 -110 -44 -88 2 -201 35 -128
38 87 3 234 132 234 206 0 32 -35 13 -54 -30 -19 -43 -23 -41 -83 54 -141 222
-186 480 -103 586 22 28 37 55 32 60 -15 15 -103 -60 -163 -139 -31 -42 -60
-72 -65 -67 -19 19 96 231 125 231 17 0 31 9 31 20 0 11 -40 20 -90 20 -50 0
-90 -9 -90 -20 0 -11 18 -20 40 -20 49 0 49 -2 2 -106 -21 -46 -38 -123 -39
-171 l-1 -87 63 97 63 97 15 -134 c14 -144 81 -311 167 -424 l53 -70 -61 -31
c-33 -17 -96 -31 -141 -31 -106 0 -102 -26 12 -79 66 -31 122 -42 187 -38 l94
7 24 -113 c23 -115 175 -357 224 -357 12 0 18 7 14 15 -44 85 -75 169 -86 235
l-14 80 72 -104 c79 -115 186 -206 243 -206 32 0 30 7 -16 55 -50 52 -91 132
-125 244 -13 42 0 36 89 -44 62 -56 131 -99 172 -106 53 -10 72 -27 88 -76 40
-120 194 -335 363 -509 93 -96 240 -252 326 -348 160 -178 224 -217 392 -245
68 -11 71 -14 105 -159 45 -185 31 -226 -121 -368 -114 -106 -167 -264 -90
-264 16 0 26 27 26 72 0 60 17 88 105 175 58 57 114 120 125 140 19 35 53 -29
187 -353 4 -9 -18 -4 -50 12 -98 51 -156 51 -163 -1 -7 -47 27 -63 41 -20 6
19 19 19 63 0 83 -38 252 -32 284 10 24 33 27 33 56 -5 39 -50 42 -11 4 41
-28 38 -30 38 -80 -9 -60 -57 -64 -48 -20 42 18 38 89 106 165 161 73 52 202
152 285 222 321 267 780 524 1098 612 169 46 182 54 166 93 -32 84 104 18 154
-74 28 -51 61 -111 75 -134 25 -42 -37 -109 -70 -76 -6 7 -1 12 12 12 13 0 23
9 23 19 0 36 -56 -1 -67 -45 -18 -68 62 -54 117 20 16 21 41 6 119 -73 119
-121 120 -118 -178 -282 -79 -44 -464 -406 -531 -499 l-36 -50 486 7 486 7
130 127 c182 178 334 254 334 168 0 -9 32 -26 70 -39 39 -13 70 -31 70 -41 0
-10 13 -13 30 -6 16 6 30 3 30 -8 0 -11 46 -25 103 -32 117 -13 111 -10 120
-62 8 -45 -134 -85 -150 -43 -6 16 -18 16 -45 0 -27 -16 -48 -16 -72 -1 -24
15 -62 14 -134 -5 -55 -14 -109 -20 -120 -13 -11 6 -25 2 -33 -10 -7 -12 -33
-18 -56 -12 -24 5 -79 3 -123 -6 -51 -11 86 -17 375 -19 l455 -2 4 100 c8 226
26 199 -174 261 -99 31 -195 57 -213 58 -19 0 -59 22 -90 48 -32 26 -93 59
-137 73 -102 32 -191 86 -306 185 -70 61 -103 77 -147 70 -65 -9 -223 152
-317 324 -34 62 -65 93 -97 98 -40 5 -45 14 -33 60 7 29 18 91 24 138 15 126
41 103 56 -50 17 -176 21 -186 48 -117 41 102 48 275 17 407 -16 69 -28 125
-26 125 2 0 47 -15 99 -32 70 -24 144 -30 283 -24 229 10 288 44 110 64 -147
17 -249 51 -358 120 l-82 52 12 146 c11 132 -6 280 -45 384 -22 57 40 5 113
-94 64 -88 83 -81 55 20 -28 103 -84 207 -135 253 l-42 38 101 48 c117 56 222
225 140 225 -11 0 -20 -9 -20 -20 0 -35 -127 -100 -196 -100 l-67 0 40 55 c59
84 99 252 115 483 15 227 35 233 79 22 l23 -110 25 90 c50 180 -1 385 -142
563 -51 65 -53 75 -25 98 44 37 129 211 161 329 30 112 37 324 7 226 -49 -164
-320 -344 -320 -214 0 62 -93 238 -165 313 -98 102 -132 78 -36 -26 134 -146
208 -349 127 -349 -24 0 -28 -6 -13 -21 32 -32 198 13 297 81 l86 59 -26 -87
c-34 -111 -95 -230 -148 -286 -53 -56 -53 -69 5 -123 71 -67 157 -252 166
-358 l9 -95 -61 114 c-33 62 -69 119 -81 126 -11 7 -20 30 -20 51 0 20 -32 70
-71 109 l-71 70 49 65 c87 117 103 161 55 146 -135 -43 -217 -3 -280 138 -69
154 -95 164 -287 109 -257 -75 -661 -68 -1065 16 -374 79 -534 97 -850 94
-530 -4 -578 -109 -56 -121 429 -11 496 -15 496 -32 0 -25 56 -17 67 10 8 19
14 19 29 -3 11 -16 30 -21 45 -11 65 40 323 -14 369 -78 19 -25 29 -26 49 -7
19 18 28 18 34 1 5 -12 27 -18 48 -13 22 6 52 0 68 -13 16 -14 81 -28 145 -32
64 -4 154 -10 201 -14 47 -5 85 -2 85 6 0 7 23 9 50 4 28 -5 50 -1 50 10 0 18
26 22 174 25 24 0 49 9 56 20 34 56 279 -95 309 -190 17 -56 27 -69 41 -60 9
6 12 -8 6 -30 -6 -22 -18 -35 -28 -29 -10 6 -12 -3 -6 -20 7 -17 20 -26 30
-20 10 6 18 -3 18 -20 0 -18 13 -37 30 -44 41 -15 15 -51 -27 -38 -26 8 -35
-2 -39 -40 -2 -28 -12 -67 -23 -88 -11 -20 -14 -57 -8 -83 20 -80 10 -483 -12
-505 -12 -12 -21 -40 -21 -63 0 -23 -11 -53 -24 -66 -40 -40 -25 -650 23 -940
30 -179 36 -257 20 -285 -16 -30 -14 -39 8 -39 19 0 26 -14 19 -40 -6 -22 2
-60 18 -85 17 -26 26 -74 21 -115 -11 -89 8 -71 43 42 l28 88 0 -110 c1 -214
-83 -359 -132 -226 -11 31 -27 73 -35 93 -13 32 -8 36 33 23 45 -13 44 -11
-13 43 -178 167 -234 316 -171 456 26 60 32 91 17 86 -36 -11 -95 -202 -110
-354 -17 -177 -41 -93 -42 149 -1 165 6 231 46 400 13 55 11 57 -16 24 -16
-20 -35 -74 -42 -122 -9 -62 -32 -104 -83 -154 l-71 -68 41 110 c46 122 58
348 19 372 -17 10 -19 -9 -10 -71 l14 -84 -60 43 c-129 91 -190 248 -106 269
80 21 105 48 105 118 0 35 16 87 35 115 19 29 61 92 93 140 78 116 91 248 37
353 -22 42 -50 124 -62 182 -45 207 -75 235 -236 225 -60 -4 -246 76 -337 145
-37 28 -34 29 40 13 147 -31 430 -33 430 -3 0 10 -101 23 -225 29 -320 15
-358 30 -536 211 -83 85 -166 187 -185 228 -46 95 -85 122 -65 44 44 -177 398
-509 688 -646 145 -69 126 -82 -117 -83 -444 0 -786 147 -883 379 -52 126
-118 201 -86 98 62 -201 273 -516 412 -617 95 -69 70 -76 -85 -23 -413 142
-618 374 -618 700 0 23 -9 43 -20 43 -80 0 92 -615 231 -825 77 -116 47 -114
-119 12 -182 136 -233 201 -329 419 -84 189 -132 270 -151 252 -7 -6 15 -65
48 -130 109 -216 142 -433 101 -678 -9 -55 -14 -103 -11 -106 5 -5 168 196
213 262 6 10 59 -13 115 -51 l104 -70 -66 -30 c-291 -132 -358 -160 -366 -151
-6 5 -27 77 -49 161 -47 186 -115 320 -214 425 -42 44 -73 91 -71 105 15 68
-38 14 -58 -60 -41 -153 -25 -439 33 -585 40 -99 -50 19 -121 158 -113 223
-134 578 -49 812 58 157 324 534 410 581 95 51 609 37 949 -25 463 -85 517
-87 770 -24 128 31 281 55 365 56 160 2 165 6 99 69 -60 56 -583 68 -561 13
13 -34 -65 -72 -112 -54 -21 8 -19 14 10 26 33 13 33 15 5 17 -18 0 -39 -8
-46 -20 -16 -24 -208 -9 -235 18 -12 12 -46 8 -90 -10 -64 -27 -69 -27 -58 3
10 26 4 30 -30 19 -28 -9 -38 -6 -28 9 10 16 -126 22 -486 22 l-499 0 -61 -57
c-34 -32 -136 -96 -226 -143 -201 -105 -328 -218 -391 -350 l-48 -100 9 170
c9 157 28 288 63 425 28 109 -27 53 -107 -110z m27 -143 c-48 -252 -27 -580
43 -666 28 -34 29 -33 18 14 -73 305 63 555 390 720 l124 63 -88 -101 c-187
-217 -296 -458 -326 -719 -9 -72 -6 -102 8 -94 24 15 26 -17 8 -111 -12 -56
-16 -60 -29 -27 -13 34 -15 32 -17 -13 -1 -63 17 -84 50 -57 18 15 28 1 38
-55 19 -96 79 -215 163 -318 69 -86 69 -108 0 -109 -38 0 -37 -5 16 -51 75
-66 146 -54 266 44 98 80 139 80 59 -1 -66 -66 -46 -65 41 1 38 28 124 74 192
102 68 28 166 72 218 98 54 27 99 39 106 28 6 -10 -18 -31 -54 -46 -421 -171
-395 -156 -383 -215 6 -30 0 -74 -13 -99 -34 -64 9 -105 49 -47 26 36 51 41
204 42 110 1 178 9 183 23 4 12 16 22 27 22 27 0 77 52 77 80 0 31 181 265
195 252 5 -6 -9 -43 -33 -82 -47 -80 -52 -98 -22 -80 32 20 81 126 90 194 12
98 50 123 142 98 170 -47 240 -19 118 47 -75 40 -248 213 -287 286 l-24 44 75
-43 c42 -23 103 -67 136 -98 33 -30 119 -90 192 -132 72 -42 128 -86 124 -98
-4 -12 30 -33 76 -46 l83 -25 -10 -119 c-6 -65 -5 -118 3 -118 18 0 142 298
142 340 0 45 116 160 166 163 24 2 66 1 93 -1 41 -4 45 0 22 27 -22 26 -20 31
17 31 68 0 114 -65 141 -202 13 -70 43 -158 65 -194 62 -101 41 -219 -64 -369
-52 -73 -89 -150 -95 -199 -12 -91 -70 -126 -180 -109 l-65 10 0 -303 c0 -397
-13 -425 -322 -725 -777 -753 -1075 -864 -1371 -513 -53 63 -192 213 -308 335
-303 315 -398 477 -518 889 l-61 210 50 44 c27 24 50 63 50 85 0 34 13 41 80
41 74 0 109 -27 57 -44 -17 -6 -17 -19 0 -51 28 -51 2 -74 -64 -58 -30 8 -52
0 -68 -26 -39 -63 102 -68 160 -5 25 26 69 65 99 87 l54 39 -12 -201 c-13
-221 2 -251 105 -204 47 21 49 30 46 188 l-3 165 -13 -145 c-15 -159 -29 -194
-49 -116 -7 28 -22 51 -32 51 -11 0 -20 66 -20 153 0 121 -7 159 -35 181 -33
28 -33 29 0 18 50 -15 43 19 -19 104 -76 105 -90 120 -75 79 20 -53 -41 -24
-82 39 -24 37 -45 48 -81 41 -45 -9 -48 -4 -48 84 0 85 -35 253 -73 351 -15
39 -14 39 42 3 l56 -38 -14 58 c-13 53 -11 54 15 19 32 -44 45 -30 64 73 10
50 7 75 -8 75 -12 0 -23 -25 -24 -55 -1 -46 -11 -36 -59 65 -159 333 -164 633
-17 987 58 137 64 123 28 -65z m3421 -742 l66 -70 -17 60 c-21 72 -2 76 56 14
48 -51 92 -314 49 -287 -12 7 -28 40 -35 73 -7 33 -21 65 -32 71 -25 15 -23
-4 12 -119 63 -207 -3 -527 -124 -598 -78 -47 62 -72 193 -34 38 10 72 16 76
11 18 -18 -99 -75 -174 -85 -99 -14 -99 -20 -9 -107 64 -62 128 -156 128 -190
0 -7 -51 34 -114 89 -120 107 -174 133 -118 57 100 -136 160 -402 123 -548
l-14 -57 -49 56 c-33 39 -48 47 -48 25 0 -83 311 -310 425 -311 19 0 35 -7 35
-16 0 -74 -384 49 -419 134 -14 34 -34 62 -44 62 -10 0 -4 -27 12 -59 48 -92
91 -299 89 -431 l-1 -120 -28 100 c-14 55 -37 145 -49 200 -37 164 -76 318
-92 357 -12 33 -9 35 29 15 52 -28 54 -17 10 49 -26 41 -30 84 -22 218 11 175
-8 328 -49 408 -21 39 -19 50 10 66 50 28 42 77 -13 77 -75 0 -76 21 -5 100
161 179 201 523 84 732 -83 149 -54 178 59 58z m-2183 -147 c-38 -8 -88 46
-88 95 0 20 20 11 61 -29 52 -50 56 -60 27 -66z m-594 -154 l74 -145 -118
-111 c-65 -62 -120 -109 -124 -106 -35 36 -62 507 -33 583 20 52 114 -52 201
-221z m1541 118 c162 -13 165 -14 164 -65 -2 -81 -74 -286 -77 -217 -1 40 -15
57 -51 66 -27 7 -44 23 -39 38 6 15 -17 33 -56 46 -36 11 -50 22 -31 23 58 3
39 42 -20 42 -65 1 -205 61 -240 104 -22 27 -13 27 80 3 58 -15 179 -33 270
-40z m-1275 -88 c-40 -74 -60 -62 -59 35 l0 96 39 -47 c30 -35 35 -56 20 -84z
m495 33 c41 -26 108 -59 149 -74 91 -31 84 -43 -65 -118 -180 -91 -234 -68
-67 30 50 29 86 59 80 65 -6 6 -47 -13 -91 -42 -101 -67 -92 -70 -151 47 -38
74 -44 103 -26 109 15 4 40 12 56 18 17 5 32 11 35 11 3 1 39 -20 80 -46z m45
-307 c-1 -42 -39 -74 -61 -52 -13 13 -17 33 -10 45 15 25 71 30 71 7z m-200
-115 c0 -17 -18 -30 -40 -30 -22 0 -40 13 -40 30 0 17 18 30 40 30 22 0 40
-13 40 -30z m-100 -17 c0 -15 18 -51 40 -79 38 -48 38 -52 5 -61 -241 -70
-395 33 -181 120 130 53 136 54 136 20z m-1240 -293 c0 -43 -10 -60 -35 -61
-30 -2 -29 -4 5 -19 22 -9 29 -18 16 -19 -14 0 -20 -14 -13 -31 6 -16 1 -30
-11 -30 -35 0 -63 92 -49 160 17 85 87 85 87 0z m225 5 c128 -11 156 -44 40
-47 -73 -3 -74 -3 -15 -16 l60 -14 -80 -14 c-44 -7 -111 -12 -150 -11 -65 3
-64 4 20 17 l90 14 -75 3 c-67 3 -75 9 -75 55 0 42 7 49 35 37 19 -8 87 -19
150 -24z m2434 -353 c21 -63 170 -232 205 -232 70 0 -41 -294 -147 -390 -158
-143 -38 -105 138 44 l105 89 0 -130 c0 -182 67 -513 103 -513 10 0 13 44 5
99 -7 54 -6 150 1 213 l15 114 50 -88 c28 -48 85 -171 126 -273 l75 -184 -166
-53 c-91 -29 -290 -114 -442 -189 -314 -154 -299 -153 -269 -25 26 112 102
688 102 775 0 106 -37 27 -49 -105 -7 -70 -35 -237 -63 -370 -27 -134 -60
-300 -72 -368 l-22 -124 -172 -131 c-94 -73 -243 -190 -331 -261 l-158 -129
-38 62 -38 63 78 82 c113 118 180 210 554 762 116 171 211 323 211 340 0 31
-119 -25 -169 -80 -99 -110 -111 -127 -111 -151 0 -13 -13 -18 -29 -12 -19 7
-25 1 -19 -16 6 -15 -10 -41 -35 -59 -25 -18 -37 -32 -27 -32 11 0 -5 -23 -35
-51 -30 -28 -55 -62 -55 -77 0 -28 -53 -98 -150 -197 -33 -34 -46 -55 -30 -46
17 9 1 -11 -35 -45 -36 -34 -65 -81 -65 -104 0 -24 -13 -56 -29 -72 -17 -17
-40 -66 -52 -110 -36 -134 -70 -86 -63 87 5 119 -2 169 -33 233 -40 83 -35 98
38 112 48 9 182 112 237 181 21 27 45 49 55 49 9 0 58 36 107 80 50 44 97 80
106 80 9 0 30 13 47 30 16 16 23 30 15 30 -8 0 63 79 158 175 322 329 325 336
319 700 -5 285 11 349 54 217z m-1150 -1742 c6 -36 3 -108 -9 -159 -24 -108
-11 -144 96 -255 69 -73 70 -77 47 -154 -28 -93 -58 -120 -75 -68 -7 20 -51
127 -99 237 -73 167 -164 484 -144 499 82 63 161 20 184 -100z m2485 -148 c13
-1 35 -13 50 -27 27 -26 138 -82 203 -103 53 -17 42 -31 -161 -210 -196 -173
-207 -179 -255 -131 -17 18 -31 24 -31 14 0 -10 -13 -18 -30 -18 -16 0 -30 8
-30 18 0 9 -8 12 -19 6 -58 -36 -377 -23 -370 15 11 59 68 137 90 123 10 -6
19 -1 19 11 0 12 9 17 20 10 12 -7 19 -6 17 4 -6 29 27 86 50 86 13 0 53 27
91 60 37 33 80 60 95 60 15 0 27 7 27 16 0 26 122 77 168 72 23 -3 53 -5 66
-6z"/>
<path d="M3693 3498 c-96 -57 -138 -258 -69 -332 l43 -46 -52 -102 c-57 -109
-56 -135 6 -174 48 -30 67 -21 187 92 170 159 115 338 -98 321 -104 -8 -110 6
-51 121 40 78 88 112 125 89 12 -7 17 0 12 15 -12 36 -56 43 -103 16z m143
-302 c82 -82 -101 -366 -202 -313 -34 18 -33 25 15 107 59 100 63 135 21 170
-16 13 -25 33 -19 42 17 27 157 22 185 -6z"/>
<path d="M1872 2928 c-31 -39 -51 -75 -46 -81 5 -5 35 23 65 62 71 94 55 111
-19 19z"/>
<path d="M2620 2720 c-14 -8 -41 -11 -62 -5 -21 5 -38 0 -38 -12 0 -15 -15
-16 -48 -4 -26 10 -54 12 -62 5 -19 -20 -550 -17 -550 2 0 46 -232 -21 -305
-88 -33 -29 -1 -33 410 -44 245 -7 692 -22 993 -34 631 -25 651 -22 569 83
-11 15 -27 45 -35 66 -11 31 -18 34 -31 13 -10 -17 -27 -21 -44 -10 -32 20
-177 24 -165 4 5 -7 -9 -12 -32 -11 -22 2 -40 13 -41 24 0 12 -9 6 -20 -13
-26 -44 -290 -23 -320 26 -11 17 -16 17 -22 -1 -6 -17 -31 -18 -90 -5 -46 10
-94 12 -107 4z"/>
<path d="M1750 2138 c-99 -8 -215 -23 -259 -32 l-78 -16 145 -125 c79 -69 161
-125 182 -125 33 0 200 222 218 290 7 25 1 26 -208 8z m-45 -52 c-55 -11 -58
-38 -6 -65 60 -33 111 -28 82 7 -19 24 -16 27 21 17 l45 -11 -46 -37 c-53 -43
-80 -46 -150 -14 -85 39 -43 119 59 114 34 -2 34 -4 -5 -11z"/>
<path d="M1829 1762 c-10 -11 -46 -22 -79 -27 l-60 -7 57 -17 c45 -13 65 -8
99 26 24 24 34 43 22 43 -11 0 -29 -8 -39 -18z"/>
<path d="M1878 1727 c-35 -36 -63 -48 -103 -42 -71 10 -72 -29 -2 -84 61 -48
87 -52 87 -13 0 51 152 112 286 114 417 7 461 56 62 68 -282 8 -283 8 -330
-43z"/>
<path d="M2040 1506 c-91 -17 -123 -99 -61 -155 47 -43 170 -90 193 -75 32 23
148 178 148 199 0 37 -154 53 -280 31z"/>
<path d="M1400 4659 c0 -12 -16 -17 -35 -11 -23 8 -66 -16 -125 -69 -50 -45
-81 -78 -69 -75 111 33 330 126 312 132 -13 4 -18 16 -12 26 6 10 -7 18 -30
18 -22 0 -41 -10 -41 -21z"/>
<path d="M601 4415 c-2 -228 81 -474 201 -594 84 -84 97 -63 21 33 -89 110
-161 302 -176 470 -18 207 -44 258 -46 91z"/>
<path d="M5800 4496 c0 -9 47 -15 105 -14 109 3 99 11 -30 23 -41 4 -75 0 -75
-9z"/>
<path d="M835 4189 c-30 -17 -55 -38 -55 -48 0 -32 44 -47 59 -22 9 13 23 23
32 21 9 -2 24 16 32 39 18 48 6 50 -68 10z"/>
<path d="M5859 4181 c16 -10 36 -14 45 -8 9 5 16 -2 16 -17 1 -18 5 -19 15 -4
8 12 29 27 45 33 17 7 -10 12 -60 13 -62 1 -81 -4 -61 -17z"/>
<path d="M5847 2967 c20 -21 154 -25 142 -5 -6 10 -44 18 -84 18 -39 0 -66 -6
-58 -13z"/>
<path d="M4520 1009 c0 -17 -8 -26 -19 -20 -10 6 -24 3 -31 -9 -7 -11 -2 -20
10 -20 12 0 17 -8 11 -19 -6 -10 -3 -23 7 -30 10 -6 28 17 40 52 27 77 27 77
2 77 -11 0 -20 -14 -20 -31z"/>
</g>
</svg>
