 <svg  version="1.0" xmlns="http://www.w3.org/2000/svg"  width="900.000000pt" height="720.000000pt" viewBox="0 0 900.000000 720.000000"  preserveAspectRatio="xMidYMid meet">  <g transform="translate(0.000000,720.000000) scale(0.100000,-0.100000)" fill="#ffffff" stroke="none"> <path d="M488 7123 c-42 -208 -48 -253 -42 -322 4 -39 10 -71 14 -71 9 0 20 61 20 113 0 21 4 57 9 80 6 23 13 60 16 81 5 29 9 36 16 25 5 -8 9 -25 9 -38 0 -27 20 -90 64 -206 43 -111 165 -274 198 -262 8 3 -4 20 -34 50 -54 54 -98 124 -98 158 0 57 68 197 129 265 16 17 70 66 120 109 50 42 89 81 85 86 -9 15 -64 11 -64 -5 0 -8 -15 -24 -33 -35 -61 -37 -207 -198 -233 -256 -29 -63 -60 -75 -69 -27 -3 15 -11 45 -17 67 -23 85 -38 172 -38 217 0 39 -3 48 -18 48 -14 0 -21 -16 -34 -77z"/> <path d="M1205 7113 c-15 -49 -35 -113 -45 -144 -48 -149 -77 -320 -87 -502 -4 -65 -2 -78 12 -83 30 -12 38 13 46 147 4 72 13 152 19 178 6 25 22 93 36 151 14 58 29 123 34 145 5 22 21 72 35 110 31 86 31 85 1 85 -21 0 -27 -10 -51 -87z"/> <path d="M1743 7194 c4 -4 -21 -59 -54 -123 -112 -213 -139 -272 -139 -297 0 -9 -7 -28 -14 -42 -36 -66 -64 -155 -75 -242 -4 -30 -12 -64 -18 -75 -27 -50 -38 -145 -37 -340 0 -200 5 -243 47 -405 13 -50 21 -71 48 -135 5 -11 13 -31 19 -45 5 -14 14 -32 19 -40 15 -24 71 -149 71 -159 0 -5 7 -14 15 -21 18 -15 20 -70 2 -70 -7 0 -20 18 -29 40 -19 43 -54 68 -70 52 -11 -11 -4 -24 44 -80 15 -18 32 -32 40 -32 12 0 34 -23 72 -74 31 -43 66 -30 66 24 0 10 -10 24 -23 33 -13 8 -31 34 -41 58 -38 88 -58 129 -67 135 -5 3 -9 12 -9 20 0 8 -14 45 -31 82 -56 119 -52 109 -105 292 -50 176 -51 514 -2 670 6 19 15 51 19 70 4 19 12 49 17 65 6 17 18 57 28 90 9 33 23 75 31 92 7 18 21 50 30 70 8 21 22 54 31 73 8 19 21 47 28 62 8 14 14 33 14 42 0 9 7 16 15 16 9 0 18 6 21 14 3 8 13 12 22 9 14 -3 22 10 40 65 30 93 29 112 -5 112 -14 0 -23 -3 -20 -6z"/> <path d="M6360 7192 c0 -5 49 -58 109 -118 101 -101 112 -118 169 -231 59 -119 92 -216 92 -274 0 -23 -5 -30 -27 -35 -46 -10 -53 -13 -53 -24 0 -18 146 -12 208 9 133 45 254 121 321 202 13 16 28 29 32 29 15 0 10 -85 -6 -123 -8 -20 -15 -47 -15 -59 0 -13 -7 -36 -15 -52 -8 -15 -15 -39 -15 -52 0 -12 -4 -25 -9 -28 -11 -7 -51 -88 -51 -104 0 -15 -86 -140 -121 -176 -16 -17 -29 -33 -29 -37 0 -4 -13 -16 -30 -26 -16 -9 -30 -22 -30 -28 0 -5 17 -28 38 -50 95 -102 134 -151 174 -223 24 -42 45 -81 47 -87 2 -5 11 -28 21 -50 24 -55 47 -153 60 -260 6 -49 15 -106 19 -125 l8 -35 12 28 c16 40 14 145 -4 203 -8 27 -15 59 -15 71 0 32 -47 141 -113 264 -29 55 -87 137 -128 183 -67 74 -66 71 -15 137 25 32 46 64 46 69 0 6 4 10 9 10 4 0 28 38 51 85 24 47 47 88 52 91 4 3 8 15 8 27 0 12 7 31 15 41 8 11 15 27 15 37 0 9 7 30 15 45 8 16 15 43 15 60 0 16 5 35 11 41 7 7 15 42 20 80 4 37 13 91 19 119 9 37 9 57 2 70 -10 18 -11 17 -21 -6 -44 -102 -180 -244 -280 -291 -97 -46 -156 -60 -181 -42 -12 8 -20 25 -20 42 0 28 -30 132 -48 167 -5 11 -19 39 -31 64 -12 25 -31 59 -41 75 -11 17 -23 37 -27 45 -10 23 -102 127 -155 178 -27 25 -48 51 -48 58 0 9 -11 14 -30 14 -16 0 -30 -4 -30 -8z"/> <path d="M2560 7009 c-74 -45 -144 -85 -155 -90 -11 -5 -33 -18 -50 -29 -16 -11 -77 -43 -135 -72 -58 -28 -123 -65 -145 -82 -59 -45 -233 -223 -261 -268 -40 -63 -111 -201 -117 -228 -4 -14 -15 -31 -27 -38 -20 -12 -20 -10 -21 110 -1 131 -9 183 -23 159 -18 -28 -18 -187 -2 -311 20 -152 26 -180 35 -180 7 0 41 125 41 152 0 10 7 34 16 55 9 21 22 52 29 68 31 75 58 127 95 181 22 33 40 64 40 70 0 28 286 264 319 264 5 0 14 7 21 15 7 8 19 15 27 15 14 0 75 39 81 53 2 4 10 7 19 7 8 0 27 6 41 14 121 63 134 68 145 57 8 -8 8 -11 -1 -11 -7 0 -12 -7 -12 -15 0 -17 -10 -25 113 94 71 68 89 91 70 91 -5 0 -69 -37 -143 -81z"/> <path d="M1708 6941 c-2 -23 0 -47 3 -53 11 -18 22 58 11 78 -8 14 -10 9 -14 -25z"/> <path d="M2415 6794 c-44 -53 -85 -101 -90 -108 -27 -29 -83 -103 -89 -116 -11 -23 -29 -52 -56 -90 -22 -31 -40 -63 -105 -190 -40 -77 -45 -89 -45 -108 0 -10 -7 -33 -16 -51 -12 -24 -13 -36 -5 -44 8 -8 12 -2 17 21 4 17 13 37 20 43 8 6 14 18 14 26 0 15 32 78 79 158 17 28 37 64 44 80 15 32 109 174 142 214 11 13 32 38 46 55 49 60 139 186 139 196 0 22 -18 5 -95 -86z"/> <path d="M1676 6829 c-9 -46 -7 -109 3 -109 14 0 21 28 21 86 0 59 -14 72 -24 23z"/> <path d="M266 6784 c-3 -9 -6 -53 -6 -100 0 -208 76 -434 185 -552 30 -33 55 -64 55 -70 0 -5 -20 -37 -45 -71 -25 -34 -45 -66 -45 -71 0 -19 20 -10 29 13 5 12 39 53 75 91 36 37 66 72 66 77 0 5 -13 9 -29 9 -62 0 -161 136 -209 287 -51 158 -54 172 -47 200 7 28 7 28 18 6 5 -13 14 -23 19 -23 5 0 13 -11 18 -25 9 -25 30 -35 30 -15 0 6 -14 36 -30 67 -17 31 -40 88 -51 125 -12 37 -22 68 -24 68 -2 0 -6 -7 -9 -16z"/> <path d="M896 6710 c-10 -55 -6 -182 9 -250 8 -36 14 -84 15 -107 0 -23 6 -57 14 -75 14 -30 20 -53 56 -188 7 -25 27 -78 46 -118 19 -40 34 -76 34 -80 2 -31 146 -196 180 -205 18 -5 19 -3 5 23 -8 15 -25 41 -38 56 -60 73 -176 287 -177 326 0 7 -7 22 -15 32 -8 11 -15 29 -15 41 0 12 -7 30 -15 41 -8 10 -15 34 -15 52 0 18 -6 58 -14 90 -15 57 -47 294 -46 342 0 42 -16 56 -24 20z"/> <path d="M463 6688 c4 -13 9 -42 13 -66 11 -67 28 -65 19 3 -4 32 -9 64 -12 72 -9 22 -26 14 -20 -9z"/> <path d="M1652 6620 c0 -19 2 -27 5 -17 2 9 2 25 0 35 -3 9 -5 1 -5 -18z"/> <path d="M504 6528 c3 -18 9 -45 12 -60 5 -21 3 -28 -9 -28 -24 0 -31 -19 -10 -27 10 -3 39 -22 66 -40 26 -19 47 -32 47 -28 0 4 -17 42 -38 84 -22 42 -42 89 -46 104 -10 40 -30 35 -22 -5z"/> <path d="M4265 6493 c17 -68 110 -222 182 -299 21 -22 58 -65 83 -95 70 -84 227 -236 310 -299 83 -63 285 -200 296 -200 4 0 39 -19 78 -43 81 -49 187 -98 231 -107 41 -8 35 -23 -15 -37 -62 -18 -434 -27 -565 -14 -120 12 -275 35 -315 46 -100 27 -168 48 -185 55 -11 5 -44 19 -74 31 -134 56 -355 185 -397 231 -19 21 -76 125 -102 188 -19 44 -49 114 -68 158 -38 89 -61 24 -25 -73 57 -154 131 -297 237 -455 127 -191 251 -328 377 -418 42 -31 77 -60 77 -65 0 -11 -73 -4 -115 11 -16 6 -64 20 -105 32 -41 12 -84 25 -95 30 -11 4 -40 15 -65 25 -123 47 -272 128 -353 191 -80 62 -289 266 -323 316 -33 48 -73 161 -74 210 0 20 -5 49 -11 65 -6 15 -15 63 -19 106 -7 73 -21 110 -36 94 -4 -4 -2 -53 4 -109 19 -173 57 -348 103 -477 17 -47 35 -102 41 -121 20 -73 88 -241 117 -290 5 -8 16 -32 25 -54 9 -21 37 -69 61 -106 52 -79 71 -118 62 -126 -7 -8 -94 39 -177 95 -219 148 -352 284 -463 471 -85 143 -103 178 -118 230 -7 25 -18 52 -25 60 -6 8 -14 24 -15 34 -6 29 -29 32 -29 4 0 -13 4 -28 9 -34 6 -5 14 -27 20 -49 5 -22 17 -67 26 -100 23 -85 53 -235 60 -303 6 -55 -6 -278 -24 -447 -10 -91 -37 -167 -52 -144 -5 8 -9 28 -9 44 -1 35 -34 164 -49 191 -6 11 -20 47 -31 82 -11 35 -24 71 -29 80 -5 9 -30 62 -57 117 -59 122 -104 183 -220 300 -72 73 -89 96 -89 120 0 47 -25 36 -45 -20 -46 -129 -54 -192 -54 -405 1 -130 5 -215 12 -233 7 -16 15 -61 18 -100 6 -74 36 -191 55 -213 6 -8 6 -14 0 -18 -5 -3 -24 9 -42 26 -32 33 -99 130 -99 145 0 4 -11 18 -23 30 -13 12 -36 54 -52 93 -16 39 -32 73 -37 76 -4 3 -8 15 -8 27 0 12 -7 31 -15 41 -8 11 -15 30 -15 43 0 13 -7 40 -16 61 -14 30 -17 79 -18 266 -1 159 -4 230 -12 233 -16 5 -24 -45 -24 -144 0 -52 -5 -94 -14 -111 -24 -46 -25 -132 -2 -132 10 0 17 -16 21 -47 6 -47 22 -110 52 -204 17 -56 69 -156 143 -275 54 -89 66 -104 129 -176 33 -37 33 -39 16 -58 -12 -13 -31 -20 -56 -20 -83 0 -88 -21 -23 -84 46 -44 124 -76 185 -76 56 0 152 54 301 167 31 24 59 43 62 43 17 0 0 -25 -54 -78 -84 -82 -82 -106 3 -52 26 16 54 30 61 30 8 0 26 15 41 34 25 32 51 48 127 80 18 8 44 19 58 24 14 6 60 27 103 46 42 20 81 36 86 36 5 0 22 6 38 14 215 109 304 147 322 141 33 -10 25 -23 -26 -46 -27 -11 -71 -31 -99 -44 -27 -13 -75 -33 -105 -45 -30 -11 -63 -25 -74 -30 -64 -29 -234 -98 -257 -103 -56 -14 -98 -49 -136 -113 -21 -35 -55 -81 -74 -102 -39 -43 -62 -81 -54 -89 14 -15 89 53 134 121 27 42 52 73 56 69 17 -18 5 -103 -24 -156 -16 -31 -30 -63 -30 -71 0 -21 18 -30 34 -17 10 9 15 8 20 -4 9 -23 20 -18 52 24 16 22 39 45 52 50 14 7 87 9 205 5 100 -3 216 -2 257 3 67 7 75 10 78 30 2 15 12 25 30 29 47 10 50 12 54 36 2 16 11 24 29 26 23 3 27 9 31 47 4 35 22 66 89 157 110 150 189 248 200 248 15 0 10 -57 -6 -70 -8 -7 -15 -16 -15 -20 0 -10 -37 -88 -60 -128 l-20 -33 21 11 c11 6 23 19 26 28 4 9 12 22 19 27 18 15 67 113 82 163 7 23 10 57 7 75 -5 26 0 40 24 75 29 39 40 72 24 72 -4 0 -93 -43 -200 -96 -197 -97 -235 -108 -241 -68 -2 17 7 26 40 42 75 35 220 144 208 156 -7 7 -16 7 -28 -1 -9 -7 -37 -22 -62 -34 -25 -13 -51 -29 -58 -36 -7 -7 -18 -13 -24 -13 -5 0 -28 -14 -49 -31 -22 -17 -46 -28 -54 -25 -18 7 -66 81 -106 166 -17 36 -35 73 -40 82 -17 34 -11 57 19 63 15 4 45 11 67 16 89 23 92 23 152 -18 54 -36 156 -89 248 -127 22 -10 49 -21 60 -26 11 -5 35 -12 53 -15 17 -4 32 -10 32 -14 0 -4 26 -12 58 -18 31 -6 75 -15 97 -21 66 -16 208 -34 235 -31 36 6 33 39 -5 59 -145 75 -391 313 -498 482 -26 42 -20 50 21 26 20 -11 75 -40 122 -64 64 -32 108 -65 172 -126 112 -109 109 -106 194 -143 40 -18 86 -45 101 -62 15 -16 46 -36 68 -43 22 -7 46 -19 53 -27 7 -7 29 -13 48 -13 19 0 34 -4 34 -10 0 -5 -6 -10 -13 -10 -7 0 -22 -6 -32 -14 -19 -14 -19 -15 -1 -35 11 -12 29 -21 40 -21 12 0 34 -7 50 -15 15 -8 33 -15 38 -15 15 0 82 -33 91 -44 5 -6 6 -80 2 -163 -5 -129 -4 -153 9 -153 17 0 52 56 66 109 5 21 19 49 29 63 11 14 29 54 41 89 12 35 26 73 30 84 5 11 19 58 31 105 23 91 47 129 132 212 37 35 59 48 90 53 23 3 57 11 75 17 23 7 46 6 81 -3 27 -7 57 -9 66 -5 16 6 15 10 -14 40 l-33 34 56 7 c51 7 61 5 97 -19 63 -42 83 -84 122 -261 9 -38 18 -92 22 -118 8 -56 20 -87 74 -185 76 -138 74 -282 -7 -437 -16 -31 -86 -125 -167 -225 -39 -49 -46 -66 -60 -140 -8 -47 -15 -97 -15 -112 0 -56 -18 -75 -84 -92 -92 -23 -202 -28 -217 -10 -13 16 -45 19 -54 4 -4 -6 -5 -156 -3 -333 5 -512 4 -545 -16 -612 -49 -166 -171 -327 -451 -590 -82 -77 -174 -165 -205 -195 -77 -74 -198 -182 -294 -260 -44 -36 -95 -79 -115 -96 -20 -17 -65 -52 -101 -79 -36 -27 -72 -56 -81 -64 -8 -9 -29 -26 -45 -38 -16 -12 -53 -42 -83 -65 -73 -57 -182 -136 -201 -145 -8 -3 -28 -16 -45 -28 -43 -32 -150 -80 -222 -100 -97 -27 -243 -18 -357 23 -49 18 -108 44 -130 59 -49 33 -154 137 -216 212 -134 164 -243 283 -433 474 -195 197 -344 366 -406 462 -14 22 -37 56 -52 75 -72 96 -222 428 -282 625 -54 179 -108 394 -123 487 -8 44 2 88 19 88 6 0 33 16 60 35 42 32 47 39 47 75 0 51 27 79 77 82 57 3 106 6 123 9 40 6 51 -1 48 -28 -2 -22 -9 -29 -31 -31 -33 -4 -34 -35 -2 -40 33 -5 65 -24 65 -39 0 -7 -7 -13 -15 -13 -11 0 -13 -7 -9 -29 5 -22 1 -32 -17 -45 -26 -18 -87 -21 -137 -7 -29 9 -34 7 -41 -12 -5 -13 -16 -29 -25 -36 -23 -19 -20 -25 18 -39 28 -10 39 -10 55 0 17 10 25 10 42 0 24 -15 6 -27 174 112 66 54 128 108 137 120 22 27 27 20 35 -45 l7 -54 7 50 c4 28 8 69 8 92 1 37 -2 43 -23 49 -28 7 -63 41 -53 51 4 3 18 1 31 -6 13 -8 29 -10 35 -7 21 14 10 46 -36 108 -53 70 -83 112 -98 138 -33 55 -60 66 -50 20 4 -16 4 -30 0 -30 -24 0 -71 39 -100 84 -48 75 -74 90 -146 82 -39 -4 -60 -2 -65 6 -4 6 -6 39 -5 72 1 34 -5 114 -14 179 -13 106 -22 146 -55 253 -6 17 -10 37 -10 45 0 8 -6 26 -14 41 -8 15 -17 40 -21 57 -10 47 15 49 71 7 26 -20 53 -36 61 -36 20 0 26 25 13 49 -8 16 -20 21 -51 21 -33 0 -52 9 -100 46 -43 33 -59 52 -59 69 0 13 -4 26 -9 30 -5 3 -12 19 -16 35 -13 58 -108 219 -119 201 -6 -9 11 -55 40 -113 8 -14 14 -33 14 -41 0 -8 7 -20 15 -27 8 -7 15 -22 15 -34 0 -12 6 -30 13 -41 7 -11 19 -40 27 -65 7 -25 21 -65 30 -90 31 -81 77 -233 96 -315 29 -127 25 -469 -5 -451 -4 3 -11 40 -14 82 -3 42 -10 81 -16 87 -6 6 -11 22 -12 37 -1 39 -33 133 -47 138 -17 5 -16 -59 3 -84 16 -21 20 -110 5 -119 -5 -3 -18 3 -30 15 -16 16 -20 33 -20 93 0 39 7 93 15 119 14 46 13 50 -17 125 -17 43 -36 83 -42 88 -6 6 -26 41 -45 79 -37 74 -94 142 -111 131 -17 -10 -11 -41 11 -61 35 -31 97 -131 113 -182 52 -165 39 -503 -33 -825 -9 -43 -21 -78 -26 -78 -6 0 -13 29 -16 63 -3 35 -11 83 -17 108 -6 25 -18 81 -27 125 -16 76 -30 120 -61 193 -8 18 -14 40 -14 50 -1 27 -32 111 -68 180 -24 45 -38 62 -53 62 -23 0 -21 -11 11 -85 9 -22 23 -56 30 -75 7 -19 28 -68 47 -108 18 -40 33 -81 33 -91 0 -10 5 -33 11 -51 10 -27 9 -42 -6 -84 -10 -28 -21 -55 -25 -61 -4 -5 -15 -37 -25 -70 -9 -33 -23 -76 -31 -95 -26 -68 -37 -116 -44 -195 -5 -44 -11 -93 -14 -110 -6 -29 -6 -29 5 -5 6 14 17 37 25 52 8 14 14 33 14 41 0 8 6 37 14 63 8 27 22 78 31 114 9 36 26 85 36 110 48 111 60 118 71 43 4 -26 13 -79 22 -118 8 -38 15 -91 16 -116 0 -57 25 -119 46 -119 9 0 31 7 50 16 19 9 40 14 47 11 8 -3 24 -45 37 -94 12 -48 28 -108 35 -133 7 -25 21 -72 30 -105 45 -166 72 -257 89 -305 33 -88 47 -140 41 -150 -10 -17 -63 -12 -113 11 -168 77 -298 210 -353 361 -13 36 -27 58 -37 58 -13 0 -14 -19 -9 -137 3 -89 11 -154 21 -182 9 -24 16 -52 16 -62 0 -11 14 -48 30 -82 54 -115 38 -126 -44 -32 -74 83 -94 113 -144 216 -59 122 -72 165 -72 246 0 39 -4 74 -9 77 -20 13 -31 -27 -41 -153 -11 -132 -4 -236 21 -332 18 -70 12 -77 -27 -34 -40 45 -62 91 -105 219 -26 75 -32 111 -36 218 -3 70 -9 128 -12 128 -3 0 -17 -16 -30 -35 -13 -20 -35 -38 -48 -41 -13 -4 -85 -4 -161 -1 -129 5 -204 19 -210 41 -2 5 32 18 74 29 123 31 211 91 278 192 25 38 35 95 17 95 -5 0 -21 -20 -35 -45 -44 -74 -51 -70 -171 120 -33 51 -65 108 -81 145 -9 19 -27 58 -40 86 -13 28 -24 59 -24 70 0 10 -7 32 -15 48 -8 15 -15 43 -15 60 0 18 -7 54 -16 80 -29 86 -7 307 34 336 5 3 21 22 36 43 35 46 17 50 -40 9 -72 -53 -175 -184 -236 -300 -45 -85 -53 -138 -13 -78 14 20 25 39 25 41 0 5 71 110 110 163 13 18 29 31 35 29 6 -2 10 -46 11 -113 2 -199 71 -434 177 -601 15 -24 27 -45 27 -48 0 -2 27 -40 60 -84 33 -44 60 -87 60 -95 0 -19 -48 -59 -102 -83 -120 -55 -124 -56 -207 -49 -49 4 -82 3 -86 -3 -15 -25 175 -115 278 -131 72 -12 201 -9 237 4 29 11 42 -11 52 -90 17 -142 63 -274 124 -360 81 -115 198 -243 206 -227 3 4 -6 33 -20 63 -63 137 -118 400 -83 400 5 0 29 -36 52 -80 24 -44 57 -97 73 -117 104 -125 211 -221 290 -257 58 -27 64 -7 13 45 -77 79 -147 219 -182 367 -27 112 -5 112 85 2 31 -38 140 -130 154 -130 3 0 27 -13 53 -28 26 -16 75 -34 107 -40 76 -15 101 -32 117 -79 6 -21 33 -78 59 -128 159 -305 240 -411 556 -731 288 -290 408 -418 488 -519 63 -79 179 -187 240 -224 73 -44 166 -69 290 -81 54 -4 102 -12 107 -17 5 -5 18 -56 28 -114 11 -58 24 -116 29 -129 6 -14 22 -63 36 -110 l26 -85 -18 -50 c-45 -122 -66 -153 -167 -252 -55 -54 -128 -118 -160 -143 l-60 -46 -3 -122 c-2 -104 0 -122 13 -122 12 0 15 17 15 98 0 111 11 136 76 179 111 74 219 190 278 298 15 28 34 56 41 64 12 13 15 12 20 -5 4 -10 10 -27 15 -36 5 -9 18 -43 29 -76 11 -33 38 -97 60 -143 63 -136 81 -177 81 -188 0 -5 14 -39 30 -76 43 -95 35 -102 -65 -55 -75 35 -172 62 -196 55 -20 -7 -39 -47 -39 -85 0 -25 4 -30 24 -30 19 0 26 7 31 30 4 16 10 32 15 35 4 3 45 -11 90 -30 82 -35 82 -35 234 -35 l153 0 32 40 c36 45 81 56 81 20 0 -17 39 -65 47 -57 2 2 -4 24 -12 49 -15 44 -44 68 -81 68 -8 0 -37 -21 -65 -47 -35 -33 -53 -43 -60 -36 -8 8 -7 19 4 40 8 15 22 53 31 83 10 30 32 71 50 91 33 36 120 99 136 99 4 0 10 3 12 8 2 4 21 19 43 34 22 15 54 39 70 54 17 14 53 41 80 60 66 44 163 124 321 262 71 63 163 136 204 163 41 26 102 68 135 92 33 24 83 56 110 72 28 15 62 36 76 46 40 28 220 133 264 153 22 11 110 52 195 93 85 41 169 81 185 88 17 7 55 25 85 40 57 28 81 37 190 74 36 12 74 26 85 31 11 5 65 20 120 34 149 38 195 53 216 72 18 16 18 17 -6 46 -47 55 -40 57 148 45 24 -2 37 2 37 10 0 10 -19 16 -90 27 -12 1 -14 14 -12 59 2 61 -14 79 -24 28 -9 -42 -36 -63 -75 -59 -35 3 -60 36 -74 96 -6 31 -24 75 -47 116 -22 40 -28 76 -12 76 8 0 14 -3 14 -7 0 -5 13 -16 30 -25 60 -34 42 27 -21 74 -17 13 -57 59 -89 103 -33 44 -72 95 -87 114 -63 77 -123 215 -123 283 0 21 7 55 15 75 8 19 15 42 15 50 0 13 25 75 52 130 6 12 8 30 4 39 -6 16 -8 16 -28 -4 -49 -48 -137 -389 -154 -592 l-7 -95 -14 45 c-8 25 -21 108 -30 185 -22 200 -2 519 42 665 7 25 16 65 20 88 6 38 5 43 -10 40 -18 -3 -38 -58 -51 -138 -8 -46 -32 -127 -52 -170 -19 -41 -159 -190 -179 -190 -17 0 -17 10 0 35 8 11 22 45 32 75 9 30 23 69 30 85 31 71 45 166 45 303 0 123 -2 143 -19 163 -29 35 -46 14 -32 -37 14 -51 14 -134 0 -134 -13 0 -109 79 -166 137 -72 74 -155 251 -138 295 4 10 26 18 63 22 68 8 138 40 154 69 6 12 15 64 19 115 5 52 12 99 17 105 5 7 13 23 17 37 4 14 44 75 90 135 127 170 175 285 175 424 0 90 -16 142 -79 250 -37 64 -71 170 -71 222 0 14 -6 45 -14 70 -7 24 -21 71 -31 103 -17 59 -60 128 -93 152 -25 18 -178 27 -241 15 -49 -10 -59 -9 -110 15 -105 48 -249 124 -281 148 -8 6 -31 20 -50 30 -19 11 -46 31 -60 44 l-25 25 25 -7 c45 -12 193 -37 285 -48 156 -18 408 2 380 30 -4 4 -84 10 -178 13 -95 3 -215 13 -267 22 -191 32 -223 38 -239 46 -9 5 -33 11 -53 14 -84 13 -165 66 -293 191 -159 157 -274 298 -340 421 -45 85 -53 95 -72 95 -12 0 -13 -7 -8 -27z m-751 -1091 c-65 -5 -95 14 -117 73 -11 28 -23 58 -28 67 -5 10 -9 27 -9 37 0 15 26 -6 99 -77 l100 -97 -45 -3z m-1140 117 c17 -12 54 -49 81 -81 28 -33 55 -65 60 -72 24 -28 55 -76 55 -85 0 -5 4 -11 8 -13 12 -5 70 -124 94 -193 12 -33 27 -69 34 -80 15 -21 18 -63 6 -81 -4 -6 -32 -27 -62 -46 -30 -20 -101 -81 -158 -138 -58 -57 -109 -99 -116 -97 -8 3 -16 18 -19 34 -3 15 -13 57 -23 93 -22 87 -43 241 -50 376 -10 168 23 403 55 404 3 0 19 -10 35 -21z m2043 -83 c70 -26 138 -44 188 -51 28 -4 64 -11 80 -15 17 -5 127 -14 245 -21 118 -6 222 -15 231 -20 43 -22 26 -144 -49 -371 -20 -60 -40 -108 -44 -108 -4 0 -8 32 -8 70 0 64 -2 71 -22 79 -51 19 -96 31 -116 31 -28 0 -28 8 -1 36 27 29 19 54 -18 54 -39 0 -163 31 -163 41 0 4 17 11 38 14 62 11 72 16 72 35 0 20 -26 30 -85 30 -82 1 -227 50 -305 103 -75 52 -112 89 -98 99 16 10 11 10 55 -6z m-1419 -109 c35 -51 39 -62 31 -86 -11 -30 -66 -101 -79 -101 -10 0 -25 223 -16 246 8 21 11 18 64 -59z m2278 -15 c-18 -34 -52 -66 -64 -58 -5 3 -6 22 -3 43 5 32 11 39 36 44 41 8 47 2 31 -29z m-2016 -252 c19 -17 68 -53 110 -80 101 -66 120 -80 120 -88 0 -8 -122 -67 -220 -107 -36 -14 -85 -36 -110 -47 -25 -11 -61 -26 -81 -33 -20 -8 -59 -25 -85 -39 -27 -14 -55 -26 -62 -26 -7 0 -21 -6 -32 -12 -14 -9 -22 -10 -31 -1 -16 16 -1 40 118 190 151 189 179 226 192 251 16 30 41 28 81 -8z m560 -254 c0 -13 -34 -82 -44 -88 -19 -13 -25 -9 -41 22 -19 38 -20 37 13 54 24 14 72 22 72 12z m-319 -136 c41 -22 10 -90 -41 -90 -35 0 -52 21 -48 56 2 20 10 30 28 35 36 10 39 10 61 -1z m-120 -81 c7 -45 50 -119 83 -144 14 -11 26 -25 26 -30 0 -21 -97 -45 -225 -55 -71 -6 -148 -13 -171 -16 -29 -5 -45 -2 -56 9 -19 19 -32 125 -18 142 6 7 75 36 153 65 78 29 146 57 152 62 22 20 50 4 56 -33z m313 9 c8 -14 7 -22 -7 -35 -16 -16 -18 -16 -38 4 -26 26 -19 56 12 51 12 -2 27 -11 33 -20z m-2206 -354 c20 -6 22 -12 22 -80 0 -51 -4 -76 -12 -78 -7 -3 -26 -7 -41 -11 -36 -7 -30 -28 9 -35 34 -6 35 -23 2 -28 -13 -2 -29 -9 -36 -14 -7 -6 -14 -9 -15 -7 -32 45 -39 65 -33 103 23 157 23 156 54 156 15 0 37 -3 50 -6z m182 -66 c46 -18 77 -22 195 -23 170 -2 165 -2 165 -19 0 -21 -90 -35 -339 -52 -107 -7 -115 -3 -105 61 10 65 7 64 84 33z m255 -118 c4 -6 -9 -10 -32 -10 -28 0 -34 3 -23 10 20 13 47 13 55 0z m155 0 c8 -5 11 -12 8 -16 -10 -9 -58 4 -58 16 0 13 30 13 50 0z m-280 -29 c0 -12 -62 -21 -152 -21 -71 0 -97 8 -81 24 10 9 233 7 233 -3z m-331 -64 c8 -10 7 -18 -3 -32 -16 -22 -32 -14 -38 20 -4 19 -1 25 12 25 10 0 23 -6 29 -13z m-94 -33 c22 -54 19 -77 -15 -102 -33 -25 -50 -28 -50 -9 0 25 35 147 42 147 4 0 15 -16 23 -36z m561 -60 c-4 -12 -10 -14 -17 -7 -5 5 -7 17 -3 27 4 12 10 14 17 7 5 -5 7 -17 3 -27z m93 17 c12 -22 5 -31 -25 -31 -29 0 -39 16 -24 35 17 20 37 19 49 -4z m-479 -53 c-1 -21 -47 -71 -59 -64 -15 9 -14 49 1 64 16 16 58 15 58 0z m3938 -138 c45 -139 123 -250 241 -342 107 -84 124 -105 117 -141 -3 -18 -8 -56 -12 -85 -4 -29 -11 -55 -15 -58 -5 -3 -9 -12 -9 -20 0 -16 -23 -71 -73 -174 -24 -49 -58 -91 -139 -172 -60 -58 -108 -112 -108 -118 0 -25 73 -1 144 46 91 60 273 209 293 240 8 13 19 21 24 18 5 -3 9 -80 9 -172 0 -154 16 -332 40 -442 5 -25 14 -72 21 -105 17 -93 26 -126 46 -180 16 -41 23 -50 43 -50 24 0 25 3 22 55 -12 250 -12 356 -2 440 16 127 23 138 51 76 12 -27 46 -89 75 -138 30 -49 54 -94 54 -101 0 -7 7 -21 15 -31 8 -11 15 -27 15 -36 0 -21 63 -167 79 -183 6 -6 11 -19 11 -29 0 -19 16 -58 63 -154 16 -34 27 -69 24 -77 -3 -9 -23 -19 -44 -22 -21 -3 -53 -13 -71 -21 -18 -8 -43 -14 -55 -14 -13 0 -32 -7 -43 -15 -10 -8 -27 -15 -37 -15 -10 0 -57 -16 -105 -35 -48 -20 -96 -39 -107 -44 -11 -4 -49 -22 -85 -39 -36 -17 -83 -38 -105 -47 -64 -27 -412 -195 -445 -215 -8 -5 -82 -48 -164 -97 -82 -48 -172 -109 -200 -135 -28 -26 -54 -48 -57 -48 -3 0 -57 -38 -120 -85 -170 -126 -171 -127 -229 -175 -29 -25 -104 -88 -165 -140 -247 -209 -280 -236 -309 -253 -17 -10 -35 -24 -41 -31 -16 -19 -63 -46 -80 -46 -8 0 -23 -17 -32 -37 -8 -21 -20 -47 -25 -58 -4 -11 -12 -33 -18 -50 -29 -94 -46 -124 -72 -125 -17 0 -48 41 -48 64 0 24 -24 84 -85 211 -54 113 -106 219 -115 235 -4 8 -20 49 -35 90 -14 41 -35 98 -46 125 -10 28 -19 58 -19 68 0 9 -7 43 -14 75 -21 80 -45 209 -48 257 -3 38 -1 41 41 62 25 13 49 27 55 33 5 5 22 10 37 10 33 0 105 -74 138 -143 35 -72 39 -211 12 -345 -26 -126 -22 -155 35 -230 64 -85 213 -239 214 -222 0 22 -97 165 -149 220 -77 81 -82 111 -51 295 13 79 9 227 -7 247 -6 7 -14 29 -18 48 -4 19 -25 61 -46 94 -22 32 -39 62 -39 67 0 4 10 14 22 20 20 11 30 18 61 44 7 6 30 22 52 35 22 13 51 35 65 47 14 13 28 23 31 23 3 0 15 8 26 18 41 34 90 73 199 154 133 100 206 158 259 207 22 20 56 49 75 65 103 84 255 222 405 366 66 64 160 154 208 200 249 239 308 366 306 666 0 88 -5 186 -10 219 -5 33 -12 123 -15 200 -5 130 -4 142 16 173 27 44 50 38 68 -18z"/> <path d="M5315 2543 c-9 -31 -20 -113 -25 -182 -8 -114 -22 -224 -49 -366 -5 -27 -15 -79 -21 -115 -6 -36 -18 -87 -25 -115 -7 -27 -20 -86 -30 -130 -9 -44 -21 -100 -27 -125 -31 -131 -48 -287 -29 -276 6 4 11 13 11 19 0 7 7 25 15 41 8 16 19 52 25 80 14 74 35 175 49 224 6 23 16 61 22 85 6 23 15 67 19 97 4 30 15 93 25 140 39 200 68 408 82 598 5 70 4 82 -10 82 -10 0 -21 -19 -32 -57z"/> <path d="M1981 6018 c0 -33 2 -38 9 -23 12 28 12 65 0 65 -5 0 -10 -19 -9 -42z"/> <path d="M1952 5946 c-7 -17 -12 -53 -10 -80 3 -47 4 -49 16 -28 8 13 12 45 10 80 -3 56 -4 56 -16 28z"/> <path d="M2700 5957 c0 -7 12 -33 32 -67 4 -8 12 -25 18 -37 10 -23 30 -32 30 -13 0 16 -33 73 -58 100 -12 13 -22 21 -22 17z"/> <path d="M1678 5939 c-8 -21 2 -98 13 -105 5 -3 9 -15 9 -27 0 -12 4 -29 10 -37 16 -25 23 12 8 46 -6 16 -17 54 -23 84 -6 35 -13 49 -17 39z"/> <path d="M376 5867 c-19 -30 -27 -46 -65 -127 -18 -37 -42 -112 -61 -195 -7 -27 -16 -122 -19 -210 -8 -179 -13 -194 -80 -235 -22 -14 -41 -28 -41 -32 0 -4 -25 -10 -55 -13 -30 -4 -55 -10 -55 -14 0 -10 88 -12 95 -2 3 5 24 19 48 30 54 27 74 45 120 105 42 56 46 76 16 95 -20 12 -21 18 -15 99 12 162 65 377 103 423 7 8 13 22 13 30 0 8 7 23 15 33 16 21 20 46 8 46 -5 0 -17 -15 -27 -33z"/> <path d="M6745 5800 c-10 -15 56 -76 111 -104 27 -14 72 -47 99 -75 71 -71 87 -130 85 -321 -1 -80 -3 -147 -6 -149 -10 -11 -44 35 -50 68 -7 42 -46 131 -56 131 -15 0 -7 -56 18 -125 91 -246 32 -620 -133 -848 -19 -26 -44 -52 -54 -58 -24 -12 -25 -46 -1 -53 73 -24 292 11 385 61 18 9 32 12 38 6 12 -12 -53 -88 -95 -111 -81 -43 -202 -81 -264 -82 -19 0 -35 -6 -38 -14 -7 -17 10 -36 81 -92 88 -69 128 -120 188 -244 73 -147 62 -172 -27 -62 -65 83 -129 140 -216 197 -36 23 -71 49 -79 58 -7 10 -20 17 -27 17 -12 0 -12 -4 -2 -22 7 -13 18 -27 24 -33 83 -79 167 -281 194 -470 6 -38 15 -82 21 -97 9 -21 7 -48 -4 -110 -9 -46 -18 -107 -22 -137 -7 -60 -20 -91 -37 -91 -7 0 -32 19 -55 42 -61 59 -54 27 10 -54 64 -80 135 -140 240 -202 78 -46 144 -63 117 -31 -7 8 -17 15 -22 15 -6 0 -27 13 -47 28 -20 16 -43 31 -51 35 -8 3 -41 27 -74 52 l-58 47 6 56 c4 32 12 82 17 112 20 104 -4 412 -41 535 -31 102 -33 112 -22 119 8 5 172 -146 172 -159 0 -3 17 -28 37 -55 45 -61 64 -54 44 18 -7 26 -17 63 -21 82 -12 50 -35 109 -48 122 -7 7 -12 17 -12 24 0 29 -68 135 -121 189 -32 33 -59 65 -59 71 0 6 21 19 48 29 109 40 220 106 260 154 22 28 60 115 67 154 7 33 5 37 -14 37 -11 0 -21 -4 -21 -9 0 -21 -54 -71 -98 -91 -26 -12 -60 -27 -77 -35 -30 -13 -179 -27 -202 -18 -19 7 -16 22 10 57 88 118 165 382 168 574 0 37 5 94 11 127 5 33 13 129 16 214 5 98 11 156 18 158 12 4 73 -130 98 -218 9 -31 16 -85 16 -122 0 -36 5 -69 10 -72 6 -3 12 0 14 7 2 7 11 36 20 63 24 74 21 119 -8 139 -13 8 -28 30 -31 48 -22 97 -140 310 -212 381 -40 39 -75 67 -84 67 -5 0 -34 18 -65 40 -59 41 -78 48 -89 30z"/> <path d="M1920 5701 c0 -41 4 -71 10 -71 6 0 10 28 10 64 0 36 -4 68 -10 71 -6 4 -10 -20 -10 -64z"/> <path d="M1856 5383 c-8 -8 -8 -57 0 -78 10 -24 24 1 24 42 0 31 -11 49 -24 36z"/> <path d="M1751 5296 c-14 -16 -3 -78 13 -73 13 4 21 87 8 87 -5 0 -15 -6 -21 -14z"/> <path d="M1883 5258 c2 -7 10 -13 17 -13 7 0 15 6 18 13 2 7 -5 12 -18 12 -13 0 -20 -5 -17 -12z"/> <path d="M5555 5246 c-46 -20 -96 -75 -123 -136 -103 -233 -103 -257 -10 -372 53 -64 59 -77 54 -106 -2 -18 -19 -50 -36 -72 -66 -83 -101 -176 -87 -232 4 -13 28 -37 55 -55 45 -29 55 -32 103 -26 57 6 65 12 132 99 17 23 48 52 67 65 19 13 56 44 81 70 43 43 46 51 53 113 15 148 -20 217 -139 272 -44 21 -178 26 -247 10 l-38 -8 0 35 c0 49 93 230 136 265 22 18 50 29 81 32 63 7 70 32 15 48 -49 15 -59 15 -97 -2z m181 -457 c39 -38 55 -78 56 -147 2 -73 -25 -117 -117 -190 -85 -68 -112 -96 -152 -154 l-25 -37 -21 22 c-12 13 -34 30 -49 40 -16 10 -28 24 -28 31 0 8 32 68 70 132 46 79 70 129 70 150 0 20 -14 51 -40 88 -23 32 -39 63 -37 69 7 23 72 37 155 33 79 -4 86 -6 118 -37z"/> <path d="M1803 5174 c-7 -20 9 -49 28 -49 22 0 18 59 -4 63 -9 2 -20 -4 -24 -14z"/> <path d="M220 4890 c0 -6 -44 -10 -111 -10 -84 0 -110 -3 -107 -12 3 -7 20 -14 39 -16 19 -1 50 -7 70 -13 32 -10 40 -8 77 15 23 14 46 26 52 26 5 0 10 5 10 10 0 6 -7 10 -15 10 -8 0 -15 -4 -15 -10z"/> <path d="M865 4283 c-17 -46 3 -335 36 -498 21 -110 56 -215 70 -215 15 0 10 36 -20 132 -36 116 -61 305 -61 465 0 114 -9 156 -25 116z"/> <path d="M5705 4260 c-8 -26 1 -40 26 -40 14 0 19 7 19 30 0 23 -5 30 -19 30 -11 0 -22 -9 -26 -20z"/> <path d="M5637 4183 c-4 -3 -7 -17 -7 -30 0 -18 5 -23 25 -23 14 0 28 7 31 15 11 27 -30 58 -49 38z"/> <path d="M5586 4084 c-21 -21 -20 -31 5 -45 17 -9 24 -8 36 4 12 12 13 19 4 36 -14 25 -24 26 -45 5z"/> <path d="M2131 3588 c-5 -64 -3 -327 3 -337 17 -27 101 -6 145 36 27 26 21 45 -6 20 -12 -10 -23 -13 -34 -7 -12 7 -19 3 -27 -15 -15 -32 -37 -32 -58 0 -14 22 -14 26 2 54 16 27 16 33 4 58 -8 15 -17 71 -20 123 -4 52 -7 83 -9 68z"/> <path d="M985 3550 c-16 -25 29 -120 48 -101 5 5 7 25 3 44 -7 39 -40 75 -51 57z"/> <path d="M2823 3135 c-29 -24 -38 -25 -135 -23 -80 2 -113 -1 -150 -15 -27 -10 -48 -24 -48 -31 0 -18 54 -46 104 -52 38 -6 46 -4 46 9 0 9 -8 20 -17 26 -15 8 -16 12 -5 23 10 10 26 9 83 -6 l70 -18 37 28 c48 37 72 62 72 74 0 17 -24 11 -57 -15z"/> <path d="M2163 3133 c-33 -12 2 -56 111 -139 54 -41 151 -94 173 -94 31 0 4 55 -32 64 -27 7 -117 58 -147 84 -10 8 -18 26 -18 39 0 12 -2 23 -4 23 -2 0 -19 6 -37 14 -19 7 -40 11 -46 9z"/> <path d="M6735 2928 c4 -12 14 -30 21 -39 8 -8 14 -21 14 -28 0 -7 6 -25 14 -39 8 -15 22 -55 32 -90 19 -70 29 -82 48 -57 11 16 19 15 112 -13 178 -53 239 -62 394 -62 80 0 163 5 185 11 22 6 64 15 94 20 62 11 114 36 106 49 -7 12 -130 12 -195 1 l-45 -8 28 -11 c16 -7 34 -12 40 -13 7 -1 1 -5 -13 -9 -14 -4 -74 -8 -135 -9 -173 -1 -356 36 -542 111 -56 23 -59 27 -111 153 -11 28 -28 52 -37 53 -14 3 -15 -1 -10 -20z"/> <path d="M7215 2760 c3 -5 14 -10 23 -10 9 0 26 -7 36 -15 11 -8 31 -15 45 -15 14 -1 37 -7 51 -15 27 -16 130 -20 130 -6 0 5 -27 12 -61 16 -33 4 -73 13 -87 21 -15 8 -39 14 -54 14 -15 0 -30 5 -33 10 -3 6 -17 10 -31 10 -14 0 -22 -4 -19 -10z"/> <path d="M3535 2613 c-71 -9 -171 -13 -285 -10 -216 4 -237 1 -290 -43 -73 -60 -97 -70 -178 -76 -52 -4 -81 -11 -89 -22 -19 -23 -17 -27 27 -47 l40 -18 21 27 c15 19 30 26 53 26 19 0 43 9 57 21 13 11 36 31 50 44 15 13 35 27 45 33 11 5 129 13 264 16 210 6 417 25 470 42 13 4 13 6 0 14 -19 12 -47 11 -185 -7z"/> <path d="M6860 2591 c0 -21 7 -58 17 -82 13 -36 16 -85 17 -266 1 -160 -2 -225 -11 -234 -9 -9 -13 -7 -17 12 -2 13 -11 59 -20 102 -9 43 -16 92 -16 109 0 18 -17 80 -39 138 -21 58 -43 120 -47 139 -5 19 -15 36 -22 39 -21 7 -25 -27 -14 -96 7 -37 14 -88 17 -114 6 -44 8 -47 38 -50 31 -3 32 -5 39 -63 5 -33 13 -73 18 -90 6 -16 14 -90 17 -164 l6 -134 24 27 c15 18 23 40 23 65 0 20 6 43 12 49 17 17 24 405 8 487 -6 33 -13 74 -16 90 -10 62 -15 75 -24 75 -6 0 -10 -17 -10 -39z"/> <path d="M3165 2249 c-22 -4 -60 -8 -85 -9 -52 -1 -130 -30 -144 -53 -8 -12 -6 -21 5 -32 14 -14 18 -14 40 3 40 32 87 40 259 47 90 3 166 8 169 10 9 10 -8 17 -75 31 -75 15 -108 16 -169 3z"/> <path d="M6716 2205 c-3 -27 -11 -75 -17 -105 -19 -94 -22 -120 -11 -120 12 0 22 24 22 54 0 12 5 27 11 33 15 15 23 132 11 163 -9 23 -10 20 -16 -25z"/> <path d="M6790 1805 c0 -3 13 -34 29 -68 16 -34 39 -84 51 -112 26 -58 62 -106 140 -189 71 -75 68 -72 115 -131 21 -28 42 -52 45 -55 19 -15 110 -145 110 -156 0 -7 -60 -49 -132 -94 -212 -129 -228 -140 -328 -206 -134 -88 -169 -120 -433 -384 -211 -212 -357 -376 -357 -401 0 -5 571 -9 1485 -9 l1485 0 0 238 0 237 -57 14 c-32 7 -96 25 -143 41 -131 43 -278 86 -355 105 -102 25 -145 44 -190 86 -43 40 -140 93 -190 104 -28 6 -58 17 -150 53 -81 32 -237 141 -345 242 -88 82 -130 103 -192 97 -29 -3 -66 -8 -81 -12 -24 -7 -33 -2 -62 31 -18 22 -67 76 -107 122 -40 46 -101 115 -135 153 -56 64 -120 175 -138 239 -9 31 -34 60 -52 60 -7 0 -13 -2 -13 -5z"/> </g> </svg> 